<?xml version="1.0" encoding="utf-8"?>
<!-- Generator: Adobe Illustrator 23.0.4, SVG Export Plug-In . SVG Version: 6.00 Build 0)  -->
<svg version="1.1" id="Logo_x5F_BDT" xmlns="http://www.w3.org/2000/svg" xmlns:xlink="http://www.w3.org/1999/xlink" x="0px"
	 y="0px" viewBox="0 0 657.6 146.3" style="enable-background:new 0 0 657.6 146.3;" xml:space="preserve">
<style type="text/css">
	.st0{fill:#E30613;}
	.st1{fill:#84746C;}
	.st2{fill:#FFFFFF;}
</style>
<path class="st0" d="M185.6,88.4h-10.5v31.5h-7.7V88.4H157v-7.3h28.6V88.4z M214.1,112.6v7.3h-23.7V81.1h23.7v7.3H198v8.3h14.7v7.2
	H198v8.7H214.1z M233.8,106.4H228v13.5h-7.7V81.1h15.5c7.2,0,12.9,5.8,12.9,12.9c0,4.9-3,9.3-7.5,11.3l8.6,14.6h-8.3L233.8,106.4z
	 M228,99.7h7.9c2.9,0,5.3-2.6,5.3-5.8s-2.4-5.7-5.3-5.7H228V99.7z M268.4,106.4h-5.8v13.5h-7.7V81.1h15.5c7.2,0,12.9,5.8,12.9,12.9
	c0,4.9-3,9.3-7.5,11.3l8.6,14.6h-8.3L268.4,106.4z M262.6,99.7h7.9c2.9,0,5.3-2.6,5.3-5.8s-2.4-5.7-5.3-5.7h-7.9V99.7z M297.2,81.1
	v38.8h-7.7V81.1H297.2z M330.6,88.4h-10.5v31.5h-7.7V88.4H302v-7.3h28.6V88.4z M331.4,100.5c0-11.4,8.9-20.2,20.1-20.2
	s20.2,8.8,20.2,20.2c0,11.3-9,20.2-20.2,20.2C340.4,120.7,331.4,111.8,331.4,100.5z M364.1,100.5c0-7.5-5.5-12.8-12.5-12.8
	s-12.5,5.3-12.5,12.8c0,7.4,5.5,12.7,12.5,12.7S364.1,107.9,364.1,100.5z M385.3,81.1v38.8h-7.7V81.1H385.3z M406.6,106.4h-5.8v13.5
	h-7.7V81.1h15.5c7.2,0,12.9,5.8,12.9,12.9c0,4.9-3,9.3-7.5,11.3l8.6,14.6h-8.3L406.6,106.4z M400.7,99.7h7.9c2.9,0,5.3-2.6,5.3-5.8
	s-2.4-5.7-5.3-5.7h-7.9V99.7z M451.4,112.6v7.3h-23.7V81.1h23.7v7.3h-16.1v8.3H450v7.2h-14.7v8.7H451.4z M455.6,111.1l6.5-3.8
	c1.4,3.6,4.1,5.9,8.9,5.9c4.6,0,6.2-1.9,6.2-4.1c0-2.9-2.6-4-8.4-5.7c-5.9-1.7-11.7-4.2-11.7-11.6c0-7.3,6.1-11.5,12.8-11.5
	c6.4,0,11.3,3.3,13.9,8.7l-6.4,3.7c-1.4-2.9-3.5-5-7.4-5c-3.2,0-5.1,1.7-5.1,3.9c0,2.4,1.5,3.7,7.4,5.4c6.2,1.9,12.7,4,12.7,11.9
	c0,7.3-5.8,11.7-14.1,11.7C462.9,120.7,457.7,116.8,455.6,111.1z"/>
<path class="st1" d="M422,25.6v38.2h-2.7v-6.3c-2.2,4.2-6.4,6.9-11.7,6.9c-7.8,0-14.1-6.2-14.1-14.3s6.3-14.3,14.1-14.3
	c5.3,0,9.5,2.7,11.7,6.9V25.6H422z M419.3,50.2c0-6.5-5.1-11.6-11.6-11.6s-11.6,5.1-11.6,11.6s5.1,11.6,11.6,11.6
	S419.3,56.7,419.3,50.2z M458.1,50.3c0,0.4-0.1,0.9-0.1,1.3h-24.7c0.7,6.2,5.4,10.2,11.6,10.2c4.5,0,7.9-2.1,9.4-5l2.4,1.4
	c-2.2,3.7-6.5,6.2-11.9,6.2c-8.4,0-14.4-6-14.4-14.3c0-8,5.8-14.3,14.1-14.3C452.9,36,458.1,42.8,458.1,50.3z M433.3,49h22
	c-0.6-6.7-5.3-10.4-10.6-10.4C438.4,38.6,433.9,42.9,433.3,49z M484.5,56.7c0,4.5-3.9,7.8-9.8,7.8c-5.5,0-9.1-2.6-10.4-6.1l2.3-1.4
	c1,2.9,3.9,4.8,8,4.8c3.8,0,7-1.7,7-5.1c0-7.4-16.5-3.2-16.5-13c0-4.3,3.7-7.8,9.3-7.8c4.4,0,7.8,2.1,9.3,5.5l-2.3,1.3
	c-1.1-2.8-4-4.2-7-4.2c-3.5,0-6.6,1.9-6.6,5.1C468,51,484.5,46.7,484.5,56.7z M187.6,53.5c0,5.8-4.6,10.4-10.4,10.4h-16.5V25.7H176
	c5.6,0,10,4.5,10,10c0,3.7-2,6.8-4.9,8.3C184.9,45.6,187.6,49.1,187.6,53.5z M163.7,28.5v14.6H176c3.9,0,7.1-3.3,7.1-7.3
	s-3.2-7.3-7.1-7.3H163.7z M184.7,53.5c0-4.2-3.4-7.7-7.5-7.7h-13.6v15.4h13.6C181.4,61.1,184.7,57.7,184.7,53.5z M217.8,54.2h-19.1
	l-3.7,9.7h-3.1l14.8-38.1h3.1l14.8,38.1h-3.1L217.8,54.2z M216.7,51.4l-8.5-22.2l-8.5,22.2H216.7z M259.1,25.7v38.1h-2.6L234,31
	v32.8h-2.9V25.7h2.5l22.6,32.8V25.7H259.1z M314.7,51.1V25.7h2.9v25.4c0,6.2,3.9,10.6,11.1,10.6s11.1-4.4,11.1-10.6V25.7h2.9v25.4
	c0,8.1-5.6,13.3-14,13.3S314.7,59.2,314.7,51.1z M374.3,61.1v2.7h-21.7V25.7h21.7v2.7h-18.8v14.8H373V46h-17.4v15.1H374.3z
	 M306.8,44.8c0-10.9-8.8-19.7-19.7-19.7c-10.9,0-19.7,8.8-19.7,19.7s8.8,19.7,19.7,19.7c3.4,0,6.5-0.8,9.3-2.3l-2.1-2.1
	c-2.2,1-4.6,1.6-7.2,1.6c-9.3,0-16.8-7.5-16.8-16.9s7.5-16.9,16.8-16.9s16.8,7.5,16.8,16.9c0,4.8-2,9.1-5.1,12.2l-8.8-8.6l-2,1.8
	l17.7,17.6l2-1.8l-7-7.1C304.6,55.4,306.8,50.4,306.8,44.8z"/>
<path class="st0" d="M39,112.7l-12.6-7v-65l32-17.8l13,7.2L39,48V112.7z M116.8,91l12.6-7V40.6L77.9,11.9l-13,7.2L116.8,48V91z
	 M77.9,119.9l-32.5-18.1v14.4l32.5,18.1l51.5-28.7V91.2L77.9,119.9z"/>
<rect x="510.8" y="26.7" class="st1" width="1.5" height="93.2"/>
<path class="st0" d="M537.9,73.3V26.6h93.3v93.3h-93.3V73.3z"/>
<path class="st2" d="M547.4,113c-2.1-0.6-2.8-3.5-1.2-5.1c0.6-0.6,1.2-0.8,2.2-0.8c0.8,0,1,0,1.4,0.3c0.8,0.4,0.8,0.5,0.5,0.9
	l-0.3,0.4l-0.3-0.2c-1.5-1-3.2,0-3.2,1.7c0,1.6,1.5,2.6,3,1.9c0.3-0.2,0.3-0.2,0.4-0.8l0-0.6h-1.5v-0.9h2.5l0,1.3l0,1.3l-0.4,0.3
	C549.5,113.1,548.3,113.3,547.4,113L547.4,113z M562.4,113c-0.7-0.2-1.2-0.6-1.5-1.1c-1.1-1.6-0.5-3.8,1.2-4.6
	c0.4-0.2,0.7-0.2,1.3-0.2c0.9,0,1.6,0.2,2.2,0.8s0.8,1.2,0.8,2.2c0,0.7,0,0.9-0.3,1.3c-0.3,0.7-0.9,1.2-1.5,1.5
	C564,113.2,563,113.2,562.4,113z M564.3,112c1.3-0.7,1.4-2.8,0.1-3.6c-0.8-0.5-1.6-0.5-2.3,0.1c-0.6,0.5-0.8,1.3-0.7,2.1
	C561.7,111.9,563.1,112.6,564.3,112L564.3,112z M570.3,113c-0.6-0.2-1.2-0.8-1.4-1.4c-0.1-0.2-0.1-1.1-0.1-2.4v-2.1l0.5,0l0.5,0
	l0,2.1c0,2.3,0.1,2.4,0.7,2.8c0.4,0.2,1.1,0.2,1.5,0c0.6-0.3,0.6-0.5,0.7-2.8l0-2.1l0.5,0l0.5,0l0,2.2c0,2.1,0,2.2-0.2,2.6
	C572.9,113,571.6,113.4,570.3,113L570.3,113z M553.3,113c0-0.1,0-1.4,0-3l0-2.8h1.7c1.6,0,1.7,0,2.1,0.2c0.8,0.4,1.2,1.4,0.9,2.3
	c-0.2,0.4-0.7,0.9-1,1c-0.1,0-0.2,0.1-0.2,0.1c0,0,0.3,0.5,0.7,1c0.4,0.6,0.7,1.1,0.8,1.1c0,0.1-0.1,0.1-0.5,0.1h-0.6l-0.7-1l-0.7-1
	h-1.4v2.1h-0.5C553.5,113.1,553.4,113,553.3,113L553.3,113z M556.6,109.9c0.4-0.3,0.5-0.7,0.4-1.1c-0.2-0.6-0.5-0.7-1.6-0.7h-1
	l0,0.9c0,0.5,0,0.9,0,1c0,0.1,0.2,0.1,1,0.1C556.2,110.1,556.4,110,556.6,109.9z M576.3,113v-3v-2.9h1.5c1.4,0,1.5,0,1.9,0.2
	c0.8,0.4,1.1,0.9,1.1,1.8c0,0.6-0.1,0.9-0.5,1.3c-0.5,0.5-0.9,0.7-2,0.7l-1,0.1l0,0.9l0,0.9l-0.5,0
	C576.5,113.1,576.3,113.1,576.3,113L576.3,113z M579.2,110.1c0.5-0.3,0.7-0.9,0.4-1.4c-0.2-0.4-0.5-0.5-1.5-0.5h-0.8l0,0.9
	c0,0.5,0,1,0,1.1C577.4,110.3,578.9,110.2,579.2,110.1L579.2,110.1z M583,113c0-0.1,0-1.4,0-3l0-2.8l2.2,0l2.2,0v0.9l-1.7,0l-1.7,0
	v1.5l1.5,0l1.5,0v0.9h-3l0,0.8l0,0.8l1.7,0l1.7,0l0,0.4l0,0.4l-2.2,0C583.5,113.1,583,113.1,583,113L583,113z M593.1,99.1l0-5.5l1,0
	l1,0v1.1l0.3-0.3c0.2-0.2,0.5-0.4,0.8-0.6c0.5-0.2,0.6-0.3,1.4-0.3c0.8,0,1,0,1.4,0.3c1.4,0.7,2.1,2.1,2.1,4.1
	c0,1.9-0.8,3.2-2.1,3.9c-0.4,0.2-0.7,0.2-1.3,0.2c-1,0-1.5-0.2-2.1-0.8l-0.4-0.4v3.9h-2.2L593.1,99.1z M598.2,100
	c0.7-0.5,1.1-1.7,0.9-2.9c-0.1-0.8-0.4-1.2-0.8-1.6c-0.8-0.7-2.2-0.4-2.7,0.6c-0.8,1.6-0.2,3.8,1,4.2
	C597.1,100.4,597.8,100.3,598.2,100L598.2,100z M547,101.8c-1.5-0.4-2.4-1.6-2.6-3.5c-0.2-1.8,0.5-3.6,1.7-4.4
	c1.3-0.8,3.1-0.6,4,0.4l0.2,0.2v-4.1h2.2l0,5.6l0,5.6l-1,0l-1,0v-0.5c0-0.3,0-0.5,0-0.5s-0.2,0.2-0.5,0.4
	C549.2,101.9,548,102.1,547,101.8L547,101.8z M549,100.2c0.5-0.1,1-0.7,1.2-1.4c0.2-0.7,0.2-2.2-0.1-2.7c-0.5-1-1.5-1.3-2.5-0.9
	c-0.8,0.4-1.2,1.3-1.1,2.6C546.6,99.6,547.6,100.6,549,100.2L549,100.2z M556.3,101.9c-1.1-0.2-2.2-1-2.7-2c-0.7-1.3-0.7-2.9,0-4.2
	c0.8-1.8,3.2-2.7,5.2-2c1.4,0.5,2.4,2.2,2.4,3.9v0.6h-2.9c-3.3,0-3-0.1-2.8,0.8c0.4,1.3,2.2,1.7,3.3,0.6l0.4-0.4h1.9l-0.2,0.3
	c-0.5,1.1-1.2,1.7-2.1,2.1C558.1,101.9,557,102,556.3,101.9L556.3,101.9z M558.9,96.6c0-0.3-0.3-0.9-0.6-1.2c-1-0.9-2.7-0.3-2.9,1
	l-0.1,0.3h3.6V96.6z M564.8,101.9c-0.8-0.1-1.6-0.5-2-1c-0.4-0.4-0.6-0.8-0.7-1.4l-0.1-0.4h1c0.9,0,1,0,1.1,0.2
	c0.2,0.8,0.7,1.1,1.4,1.2c1,0.1,1.7-0.3,1.7-1c0-0.6-0.3-0.8-2-1.2c-1.6-0.4-2.4-0.8-2.7-1.3c-0.2-0.3-0.2-0.5-0.2-1.1
	c0-0.8,0.2-1.4,0.9-1.8c0.6-0.5,1.3-0.6,2.6-0.6c1.3,0,1.9,0.2,2.6,0.7c0.4,0.3,0.8,1,1,1.6l0.1,0.3h-1.1c-0.9,0-1.1,0-1.1-0.1
	c0-0.6-0.7-1-1.5-1c-0.9,0-1.3,0.4-1.2,1c0.1,0.3,0.4,0.5,2,0.9c2,0.5,2.7,0.9,3,1.7c0.2,0.5,0.1,1.4-0.2,1.9
	c-0.3,0.6-1,1.1-1.7,1.3C566.9,101.9,565.6,102,564.8,101.9L564.8,101.9z M587.6,101.9c-0.7-0.1-1.6-0.6-2-1.1c-1.9-2-1.4-5.8,1-7
	c1-0.5,2.4-0.6,3.5-0.2c1.4,0.5,2.4,2.2,2.4,4v0.6h-5.8l0.1,0.4c0.1,1,0.7,1.5,1.7,1.6c0.5,0,0.6,0,1.1-0.2c0.3-0.2,0.6-0.4,0.7-0.5
	c0.2-0.3,0.2-0.3,1.1-0.3c1.1,0,1.1,0,0.6,0.8C591.2,101.5,589.4,102.2,587.6,101.9L587.6,101.9z M590.2,96.7c0-0.5-0.5-1.3-1-1.5
	c-0.7-0.3-1.7-0.1-2.1,0.4c-0.2,0.2-0.5,0.8-0.5,1.1c0,0.2,0,0.2,1.8,0.2C589.9,96.9,590.2,96.8,590.2,96.7L590.2,96.7z
	 M605.7,101.9c-0.7-0.1-1.6-0.6-2.1-1.1c-1.3-1.3-1.6-3.7-0.6-5.5c1.4-2.7,6-2.5,7.3,0.2c0.6,1.3,0.6,3,0,4.3
	C609.6,101.4,607.7,102.2,605.7,101.9z M607.6,100c0.2-0.1,0.4-0.4,0.6-0.8c0.2-0.5,0.3-0.7,0.3-1.4c0-1-0.1-1.6-0.6-2.1
	c-0.4-0.5-0.8-0.7-1.4-0.7c-0.8,0-1.3,0.3-1.7,1.1c-0.2,0.3-0.2,0.5-0.2,1.5c0,1,0,1.2,0.2,1.5c0.2,0.5,0.7,0.9,1,1
	C606.4,100.4,607.3,100.3,607.6,100L607.6,100z M619.5,101.9c-0.7-0.1-1.4-0.4-1.8-0.7c-0.4-0.3-0.8-1.1-0.9-1.6l-0.1-0.4h2l0.1,0.4
	c0.2,0.7,1,1.1,2,1c0.8-0.1,1.3-0.8,1-1.4c-0.1-0.3-0.7-0.5-2-0.8c-1.8-0.4-2.3-0.7-2.7-1.4c-0.2-0.4-0.2-1.1-0.1-1.7
	c0.1-0.4,0.7-1,1.1-1.3c1.1-0.6,3.3-0.6,4.4,0c0.7,0.3,1.3,1.3,1.3,1.9V96h-2l-0.1-0.3c-0.1-0.5-0.7-0.8-1.5-0.8
	c-0.9,0-1.4,0.4-1.2,1c0.1,0.4,0.5,0.5,2,0.9c1.7,0.4,2.3,0.7,2.7,1.3c0.2,0.4,0.3,0.5,0.3,1.1c0,0.8-0.2,1.2-0.6,1.7
	C622.8,101.8,621.1,102.2,619.5,101.9L619.5,101.9z M573.9,101.7c0,0-0.1-2.6-0.1-5.7v-5.6h2.7c3,0,3.5,0.1,4.6,0.6
	c1.1,0.5,2,1.7,2.4,3.2c0.2,0.8,0.2,2.8,0,3.7c-0.5,1.8-1.6,3.1-3.3,3.6c-0.4,0.1-1,0.2-3.4,0.2
	C575.2,101.8,573.9,101.8,573.9,101.7z M579.7,99.4c1.1-0.6,1.7-2,1.4-3.9c-0.1-1.1-0.5-1.9-1.2-2.3c-0.6-0.4-1.1-0.5-2.5-0.5
	l-1.3,0l0,3.5l0,3.5l1.6,0C579.2,99.6,579.4,99.6,579.7,99.4L579.7,99.4z M613.7,101.7c-0.4-0.1-0.8-0.4-1-0.8
	c-0.2-0.3-0.2-0.5-0.2-3.1l0-2.8h-1.3v-1.5h1.3v-2.4h2.2v2.4h1.6v1.5h-1.6v2.3c0,2.8,0,2.7,1,2.7h0.6v1.7l-1.1,0
	C614.5,101.8,613.8,101.8,613.7,101.7z M603.9,92.6c0,0,0.4-0.5,0.8-1.1l0.8-1.1h2.1l0.8,1c0.4,0.6,0.8,1.1,0.8,1.1
	c0,0.1-0.1,0.1-0.8,0.1l-0.9,0l-0.5-0.6c-0.3-0.3-0.5-0.6-0.5-0.6s-0.3,0.3-0.5,0.7l-0.5,0.7h-0.8C604.3,92.7,603.9,92.6,603.9,92.6
	L603.9,92.6z M587.3,92.1c0,0,0.4-0.7,0.8-1.4l0.8-1.3h2.4l-0.3,0.3l-1.3,1.4l-1,1.1H588C587.7,92.2,587.3,92.2,587.3,92.1z
	 M549,86.7c-2.2-0.3-3.9-1.8-4.5-4.1c-0.2-0.8-0.2-2.5,0-3.4c0.5-2,2-3.6,3.8-4c0.8-0.2,2.2-0.2,2.9,0c1.7,0.4,3.1,1.9,3.3,3.4
	l0.1,0.4h-2.3l-0.1-0.4c-0.5-1.6-2.8-2.1-4.2-1c-0.4,0.4-0.9,1.2-1,2c-0.2,0.8-0.1,2.5,0.2,3.1c0.3,0.7,0.9,1.4,1.5,1.6
	c0.6,0.3,1.7,0.3,2.3,0.1c0.7-0.3,1.2-1,1.4-1.8l0.1-0.4l1.2,0l1.2,0v0.2c0,0.9-0.6,2.2-1.4,3C552.2,86.4,550.7,86.9,549,86.7
	L549,86.7z M557.2,86.6c-1.3-0.4-1.8-1.2-1.7-2.5c0-0.5,0.1-0.7,0.3-1.1c0.5-0.8,1.2-1.1,3.5-1.4c1.1-0.1,1.4-0.3,1.5-1
	c0-0.4,0-0.5-0.2-0.7c-0.2-0.2-0.4-0.3-0.7-0.3c-0.9-0.1-1.6,0.2-1.8,0.8l-0.1,0.3h-2.2l0.1-0.4c0.1-0.5,0.3-0.9,0.8-1.3
	c0.7-0.6,1.6-0.9,3.1-0.9c1.2,0,2.1,0.2,2.7,0.7c0.7,0.6,0.7,0.5,0.7,4.1c0,1.7,0.1,3.3,0.1,3.4c0.1,0.2,0.1,0.2-1,0.2h-1.1
	l-0.1-0.3c-0.1-0.5-0.1-0.5-0.4-0.3C560,86.6,558.2,86.9,557.2,86.6z M560.2,84.9c0.5-0.3,0.7-0.8,0.7-1.7c0-0.4,0-0.7,0-0.7
	s-0.2,0.1-0.3,0.1s-0.6,0.2-1,0.2c-1,0.2-1.4,0.4-1.6,0.8c-0.2,0.5-0.1,1,0.3,1.3C558.6,85.3,559.7,85.2,560.2,84.9L560.2,84.9z
	 M570.3,86.6c-0.3-0.1-0.6-0.2-0.9-0.3c-0.8-0.3-1.6-1.4-1.6-2.1v-0.3h2l0.1,0.2c0.2,0.7,0.8,1.1,1.6,1.1c0.6,0,1-0.2,1.3-0.5
	c0.4-0.5,0.1-1.1-0.8-1.3c-0.5-0.2-1-0.3-1.6-0.4c-1.2-0.3-1.5-0.4-1.9-0.8c-0.5-0.4-0.6-0.7-0.6-1.4c0-1.2,0.6-1.9,1.8-2.3
	c0.8-0.3,2.3-0.3,3.1,0c1.1,0.3,1.9,1.1,2,2l0.1,0.4h-2l-0.1-0.4c-0.2-0.5-0.6-0.7-1.4-0.7c-0.8,0-1.1,0.2-1.2,0.6
	c-0.1,0.3,0.2,0.7,0.5,0.9c0.1,0.1,0.8,0.3,1.6,0.4c1.8,0.4,2.5,0.8,2.8,1.6c0.2,0.4,0.1,1.4,0,1.8c-0.2,0.4-0.7,1-1.1,1.2
	C573.2,86.7,571.5,86.8,570.3,86.6L570.3,86.6z M578.7,86.6c-1.4-0.3-2.3-1.2-2.5-2.3l0-0.3h1.1c1,0,1.1,0,1.1,0.2
	c0,0.3,0.4,0.8,0.7,0.9c0.3,0.1,0.6,0.2,0.9,0.2c0.9,0,1.5-0.4,1.5-1c0-0.6-0.2-0.7-2.3-1.3c-1.6-0.4-2.1-0.7-2.5-1.2
	c-0.2-0.3-0.2-0.5-0.2-1.1c0-1.4,0.9-2.3,2.7-2.5c2.3-0.3,4,0.6,4.3,2.2l0.1,0.3h-2.1l-0.1-0.3c-0.1-0.4-0.4-0.6-0.9-0.8
	c-1.1-0.2-2,0.2-1.7,1c0.1,0.3,0.7,0.5,2,0.8c0.8,0.2,1.5,0.4,1.7,0.5c0.9,0.5,1.3,1,1.3,2c0,1.2-0.7,2.1-1.8,2.4
	C581.1,86.6,579.5,86.7,578.7,86.6L578.7,86.6z M587.5,86.6c-1.4-0.3-2.4-1.4-2.8-2.8c-0.2-0.7-0.2-2.1,0-2.7
	c0.5-1.6,1.7-2.6,3.3-2.9c2.2-0.4,4,1,4.5,3.4c0.1,0.4,0.1,0.9,0.1,1.1V83h-5.9l0.1,0.4c0.2,1.1,0.8,1.7,2,1.7
	c0.6,0,1.1-0.2,1.5-0.7l0.3-0.3l0.9,0l0.9,0l-0.3,0.7c-0.3,0.7-0.9,1.3-1.5,1.6C589.8,86.7,588.4,86.8,587.5,86.6L587.5,86.6z
	 M590.2,81.3c-0.3-1.2-1.2-1.7-2.3-1.4c-0.6,0.2-1,0.7-1.2,1.4l-0.1,0.3h3.6L590.2,81.3z M564.6,82.5v-4.1h2.1v8.1h-2.1V82.5z
	 M564.6,76.2v-0.9h2.1v1.9h-2.1V76.2z M610.3,75.7c-3.2-0.4-6.3-1.3-9.2-2.7c-7-3.3-12.2-9.2-14.8-16.5c-1.8-5-2.1-10.8-0.9-16.2
	c1.1-4.8,3.5-9.2,6.8-12.9l0.7-0.8h3.1l-1.2,1.2c-4.8,4.8-7.5,10.9-7.9,17.6c-0.4,7.5,2.3,14.7,7.5,20c4.4,4.5,9.7,7.2,16,8
	c1.7,0.2,5.1,0.2,6.7,0c5.1-0.7,9.7-2.7,13.5-5.8l0.7-0.6V70l-0.7,0.5c-1.6,1.2-4.5,2.8-6.6,3.5c-2.2,0.8-4.7,1.4-7.1,1.7
	C615.2,75.9,611.9,75.9,610.3,75.7L610.3,75.7z M611.7,72.1c-0.8-0.3-1-0.9-0.3-1.4c0.2-0.2,0.2-0.2,0.1-0.4c-0.2-0.3-0.2-0.8,0-1
	c0.5-0.4,1.3-0.3,1.5,0.2c0.2,0.3,0,0.8-0.2,0.9c-0.2,0.1-0.2,0.1,0.1,0.4c0.1,0.2,0.2,0.4,0.2,0.4C613,71.8,612.3,72.3,611.7,72.1
	L611.7,72.1z M612.3,71.7c0.3-0.2,0.3-0.5-0.1-0.8c-0.3-0.3-0.4-0.3-0.7,0.1C611.1,71.5,611.7,72.1,612.3,71.7L612.3,71.7z
	 M612.5,70.2c0.1-0.1,0.1-0.3,0.1-0.4c0-0.2-0.3-0.5-0.5-0.5c-0.2,0-0.5,0.3-0.5,0.5c0,0.1,0.5,0.7,0.6,0.7
	C612.3,70.4,612.4,70.3,612.5,70.2L612.5,70.2z M613.5,72.1c0-0.1,0.1-0.1,0.2-0.2c0.2-0.1,0.2-0.1,0.2-0.8c0-0.8,0-0.8-0.2-0.9
	c-0.3-0.1-0.2-0.3,0.3-0.3l0.3,0l0,1c0,0.9,0,1,0.2,1c0.1,0,0.2,0.1,0.2,0.2c0,0.1-0.1,0.1-0.6,0.1
	C613.8,72.1,613.5,72.1,613.5,72.1L613.5,72.1z M615.8,71.8c-0.7-0.6-0.6-1.9,0.1-2.5c0.3-0.3,0.9-0.5,1.1-0.4
	c0.1,0.1,0,0.1-0.3,0.3c-0.4,0.2-0.7,0.6-0.9,1.1l-0.1,0.2l0.3-0.2c0.4-0.3,0.8-0.3,1.1,0.1c0.5,0.4,0.3,1.4-0.2,1.7
	C616.5,72.1,616.1,72.1,615.8,71.8L615.8,71.8z M616.8,71.6c0.2-0.2,0.2-0.6,0.1-0.9c-0.2-0.4-0.6-0.5-0.9-0.2
	c-0.2,0.1-0.2,0.2-0.1,0.5C615.9,71.7,616.4,72,616.8,71.6L616.8,71.6z M609.8,71.8l-0.4-0.1c-0.3-0.1-0.3-0.2,0-0.2
	c0.2,0,0.3-0.1,0.4-0.9c0.1-0.6,0.1-0.7,0-0.8c-0.3-0.2-0.2-0.3,0.2-0.3c0.3,0,0.4,0,0.4,0.3c0,0.1-0.1,0.6-0.1,1s-0.1,0.7-0.1,0.8
	c0,0,0.1,0.1,0.2,0.1c0.1,0,0.2,0.1,0.2,0.2C610.4,71.9,610.1,71.9,609.8,71.8L609.8,71.8z M619.5,70.5c-0.2-0.2-0.2-0.4,0-0.6
	s0.4-0.2,0.6,0c0.2,0.2,0.2,0.4,0,0.6C619.8,70.7,619.7,70.7,619.5,70.5z M623,70.3c-0.1-0.1-0.1-0.6,0-0.6c0,0,0.1,0.1,0.2,0.1
	c0.2,0.2,0.4,0.2,0.7-0.1c0.2-0.2,0.2-0.2,0.2-0.5s-0.2-0.2-0.8-0.3c-0.6,0-0.7-0.1-1-0.3c-0.4-0.4-0.3-0.8,0-1.2
	c0.3-0.3,0.9-0.5,1.2-0.4c0.2,0,0.3,0.5,0.3,0.7c-0.1,0.2-0.1,0.2-0.3-0.1c-0.2-0.2-0.3-0.3-0.5-0.2c-0.6,0.1-0.8,0.6-0.4,0.9
	c0.1,0.1,0.3,0.2,0.8,0.2c0.6,0,0.7,0,0.9,0.2c0.5,0.5,0.2,1.1-0.7,1.4C623.2,70.3,623,70.3,623,70.3L623,70.3z M603.1,69.7
	c-0.8-0.4-1.1-0.7-0.7-0.6c0.2,0,0.3-0.2,0.7-1c0.4-0.9,0.5-1.1,0.4-1.3c-0.1-0.1-0.1-0.2-0.1-0.3c0.1-0.1,2,0.9,2,0.9
	c0,0.1-0.3,0.5-0.4,0.5c0,0-0.1-0.1-0.1-0.2c0-0.2-0.1-0.3-0.4-0.4c-0.1-0.1-0.3-0.1-0.4-0.2c-0.1,0-0.4,0.8-0.4,0.8
	c0,0,0.2,0.2,0.4,0.2c0.7,0.3,0.4,0.5-0.3,0.2c-0.3-0.1-0.3-0.1-0.5,0.1c-0.4,0.7-0.4,0.7,0.1,0.9c0.4,0.2,0.4,0.2,0.6,0
	c0.2-0.2,0.3-0.2,0.3,0c0,0.2-0.2,0.6-0.3,0.6C604,70.2,603.6,70,603.1,69.7L603.1,69.7z M606.8,70.1c-0.2-0.1-0.3-0.2-0.3-0.3
	c0-0.2,0-0.2,0.6-0.1c0.3,0.1,0.4,0.2,0.4,0.3C607.5,70.2,607.2,70.2,606.8,70.1L606.8,70.1z M625.4,69.2c0,0,0-0.1,0.1-0.2
	c0.1-0.1,0-0.3-0.5-1.2c-1-1.6-0.9-1.7,0.8-0.9c0.7,0.3,1.2,0.5,1.2,0.5c0,0-0.2-0.4-0.4-0.8c-0.4-0.7-0.5-0.7-0.7-0.7
	c-0.4,0-0.3-0.2,0.2-0.5c0.3-0.2,0.5-0.2,0.5-0.1c0,0.1,0,0.2-0.1,0.2c-0.2,0.2,1.1,2.2,1.3,2.1c0.3-0.1,0.3,0.1,0,0.3l-0.3,0.2
	l-1.3-0.6c-0.7-0.3-1.3-0.6-1.3-0.5s0.2,0.4,0.5,0.9c0.5,0.8,0.5,0.8,0.8,0.8c0.4-0.1,0.3,0.1-0.2,0.4
	C625.6,69.2,625.4,69.3,625.4,69.2L625.4,69.2z M600.1,68.1c-0.7-0.5-0.7-1,0-2.1c0.4-0.7,0.5-0.8,0.4-0.9c-0.2-0.3,0-0.3,0.5,0
	c0.5,0.3,0.6,0.6,0.2,0.4c-0.2-0.1-0.3,0-0.7,0.7c-0.3,0.4-0.5,0.8-0.5,0.9c-0.1,0.3,0.2,0.7,0.6,0.8c0.4,0.2,0.7,0,1.3-0.9
	c0.4-0.7,0.5-0.8,0.4-0.9c-0.1-0.1-0.2-0.4-0.1-0.4s1,0.6,1,0.7c0,0-0.1,0.1-0.2,0c-0.2,0-0.3,0-0.7,0.7
	C601.4,68.4,600.8,68.6,600.1,68.1L600.1,68.1z M597.7,67.3c-0.3-0.3-0.4-0.5-0.5-0.9c-0.1-0.3-0.2-0.7-0.3-0.9
	c-0.6-0.8-0.3-1.8,0.7-2.3c1.2-0.6,2.6,0.7,2,1.9c-0.2,0.3-0.7,0.8-1,0.9c-0.1,0-0.4,0-0.6,0c-0.3,0-0.4,0-0.4,0.1
	c0,0.2,0.4,0.8,0.7,1.1c0.2,0.2,0.3,0.3,0.3,0.3C598.3,67.8,598,67.6,597.7,67.3z M598.3,65.7c0.4-0.2,0.8-0.8,0.9-1.1
	s-0.1-0.8-0.4-1c-0.5-0.3-1.2,0-1.6,0.6c-0.4,0.5-0.3,1,0,1.4C597.6,65.8,597.9,65.9,598.3,65.7L598.3,65.7z M628.2,66.4
	c-1.2-0.8-0.8-2.6,0.6-2.8c0.5-0.1,1,0.2,1.4,0.7c0.4,0.5,0.4,1,0.2,1.6C629.9,66.7,629,66.9,628.2,66.4L628.2,66.4z M629.7,66.1
	c0.6-0.3,0.6-1.2-0.1-1.8c-0.3-0.3-0.5-0.4-0.7-0.4c-0.4,0-0.8,0.4-0.9,0.7c-0.1,0.6,0.7,1.6,1.2,1.6
	C629.3,66.3,629.5,66.2,629.7,66.1z M613.1,65.2c0.5-1,0.5-1,0.9-0.2c0.2,0.4,0.4,0.7,0.4,0.7s-0.2,0-0.4-0.1
	c-0.3-0.1-0.5-0.1-1,0.1C612.8,65.7,612.8,65.7,613.1,65.2z M612.2,64.6c0-0.2,0-0.6,0-0.8c0-0.2-0.1-0.4,0-0.4
	c0.2,0.1,0.5,0.2,0.7,0.4c0.7,0.4,0.7,0.4-0.2,0.9l-0.5,0.3L612.2,64.6z M614.4,64.6c-0.3-0.2-0.6-0.4-0.6-0.4
	c0-0.1,0.8-0.5,1.2-0.7c0,0,0,0.3,0,0.8V65L614.4,64.6L614.4,64.6z M595.1,63.7c-0.2-0.2-0.4-0.4-0.4-0.5s0.1,0,0.3,0
	c0.3,0.1,0.4,0,1.1-0.7c0.7-0.7,0.8-0.8,0.8-1c-0.1-0.3,0.1-0.3,0.5,0.2c0.3,0.4,0.4,0.6,0.1,0.5c-0.1-0.1-0.3,0-1,0.7
	c-0.7,0.6-0.8,0.8-0.8,1c0,0.1,0,0.3,0,0.3C595.5,64.1,595.3,63.9,595.1,63.7L595.1,63.7z M613.4,63.8l-0.4-0.7l-0.2-0.4h0.8
	c0.4,0,0.8,0,0.8,0c0,0-0.8,1.3-0.8,1.3C613.6,64,613.5,63.9,613.4,63.8L613.4,63.8z M609.2,63.6c0.2-0.3,0.4-0.5,0.6-0.7
	c0.4-0.3,0.4-0.3,0.2-0.4c-0.2-0.1-0.5-0.6-0.5-0.8c0-0.2-0.2-0.3-0.3-0.1c0,0-0.2,0.1-0.4,0.2c-0.4,0.1-0.9,0-1.2-0.3
	c-0.2-0.2-0.2-0.3,0.2-0.3c0.2,0,0.2-0.1,0.2-0.2c0-0.1-0.1-0.3-0.2-0.5c-0.1-0.5,0-0.6,0.4-0.4c0.4,0.1,0.7,0.5,0.8,1
	c0.1,0.3,0.1,0.4,0.2,0.2c0.3-0.5,0-1.3-0.6-1.7c-0.4-0.2-1.1-0.2-1.5,0.1c-0.4,0.2-0.4,0.1-0.1-0.3c0.7-0.8,1.6-0.8,3.5-0.1
	c0.6,0.2,1.3,0.4,1.6,0.5s0.5,0.2,0.5,0.2c-0.1,0.3-1.3,1.2-1.8,1.2l-0.3,0.1l0.2-0.3l0.2-0.3l-0.4-0.2c-0.2-0.1-0.3-0.2-0.5-0.2
	c-0.1,0-0.1,0.3,0,0.8c0,1,0.2,1.3,0.9,1.3c0.4,0,0.4,0,0.5,0.3c0.1,0.7-0.5,1.1-1.6,1.2l-0.6,0.1L609.2,63.6z M617.1,63.8
	c-0.9-0.2-1.2-0.6-1-1.2c0.1-0.3,0.1-0.3,0.3-0.3c0.7,0.1,1-0.3,1-1.4c0-0.7,0-0.8-0.6-0.4l-0.4,0.2l0.2,0.2
	c0.1,0.1,0.2,0.3,0.2,0.3c0,0-0.2,0-0.4-0.1c-0.2-0.1-0.7-0.4-1.1-0.7c-0.7-0.6-0.7-0.6-0.5-0.6c0.6-0.1,1.5-0.4,2.4-0.7
	c1.6-0.6,2.7-0.5,3.2,0.4c0.3,0.4,0.2,0.5-0.1,0.2c-0.9-0.6-2.1-0.2-2.3,0.8c-0.1,0.3,0.1,0.8,0.2,0.8c0.1,0,0.1,0,0-0.1
	c0,0,0-0.3,0-0.5c0.1-0.4,0.5-0.7,0.9-0.8c0.3-0.1,0.3,0,0.3,0.3c0,0.2-0.1,0.4-0.1,0.6c-0.2,0.3-0.1,0.4,0.2,0.4
	c0.4,0,0.3,0.2-0.2,0.4c-0.5,0.2-0.9,0.2-1.3-0.1l-0.2-0.2l-0.1,0.4c0,0.2-0.2,0.5-0.4,0.6l-0.3,0.2l0.3,0.2
	c0.4,0.3,0.6,0.5,0.8,0.9c0.1,0.2,0.1,0.3-0.2,0.2C617.6,63.9,617.3,63.9,617.1,63.8L617.1,63.8z M630.8,63.5
	c-0.5-0.6-1-0.9-1.1-0.8c-0.1,0.1-0.3,0.1-0.3,0c0-0.1,0.2-0.3,0.4-0.5l0.4-0.4l0,0.3c0,0.2,0,0.3,0.4,0.8c0.4,0.4,0.5,0.5,0.4,0.7
	l0,0.2L630.8,63.5z M608,62.8c-0.3-0.1-0.3-0.2-0.1-0.4c0.3-0.3,0.9-0.3,1.2-0.1l0.2,0.2l-0.3,0.2C608.7,62.9,608.4,63,608,62.8
	L608,62.8z M618.2,62.8c-0.3-0.2-0.4-0.3-0.1-0.5c0.3-0.2,0.8-0.1,1.1,0.1c0.3,0.2,0.3,0.3,0,0.5C618.8,63,618.6,62.9,618.2,62.8
	L618.2,62.8z M593.6,61.9c-0.5-0.6-0.6-0.9-0.5-0.9c0.1,0,0.2,0,0.2,0.1c0.1,0.1,0.4-0.1,1-0.6c0.8-0.6,0.9-0.7,0.9-0.9
	c0-0.3,0.1-0.3,0.5,0.2c0.3,0.5,0.3,0.7,0,0.5c-0.2-0.1-0.3,0-1.1,0.6l-1,0.7c0,0,0.1,0.2,0.3,0.4c0.3,0.3,0.3,0.4,0.6,0.3
	c0.2,0,0.3,0,0.3,0c0,0.1-0.4,0.5-0.5,0.5C594.2,62.7,593.9,62.3,593.6,61.9L593.6,61.9z M613.3,62c-0.1-0.1-0.2-0.2-0.3-0.1
	c-0.2,0-0.4-0.3-0.3-0.4c0,0,0-0.1-0.1-0.1c-0.3-0.1-0.2-0.5,0.3-0.9c0.3-0.2,0.6-0.4,0.6-0.4c0.2,0,1.2,0.9,1.2,1.1
	c0,0.1-0.1,0.2-0.2,0.2c-0.1,0.1-0.2,0.2-0.2,0.3c0,0.2-0.2,0.4-0.4,0.3c-0.1,0-0.2,0-0.2,0.1C613.7,62.2,613.5,62.2,613.3,62
	L613.3,62z M606,61.2c-0.2-0.1-0.2-0.3,0.1-0.5c0.3-0.2,0.8-0.3,1-0.2c0.2,0.1-0.1,0.5-0.5,0.7c-0.2,0-0.4,0.1-0.4,0.1L606,61.2
	L606,61.2z M620.7,61.2c-0.2-0.1-0.5-0.2-0.6-0.4c-0.1-0.2-0.1-0.2,0-0.3c0.2-0.1,0.6-0.1,0.9,0.1c0.2,0.1,0.5,0.5,0.5,0.5
	C621.4,61.2,620.8,61.2,620.7,61.2z M631,61.1c0,0,0-0.1,0.1-0.2c0.1-0.1,0.1-0.1,0.1,0.1C631.2,61.1,631.1,61.1,631,61.1
	C631,61.1,631,61.1,631,61.1z M592.3,59.8c-0.3-0.2-1-1.5-0.9-1.6c0,0,0.1,0,0.2,0.1c0.2,0.1,0.2,0.1,1.2-0.4c1-0.5,1-0.6,1-0.9
	c0-0.3,0-0.3,0.1-0.1c0.1,0.1,0.3,0.5,0.5,0.8c0.3,0.5,0.3,0.7,0.3,0.9c-0.1,0.3-0.5,0.6-0.9,0.5c-0.2,0-0.2,0-0.2,0.2
	C593.7,59.9,592.8,60.2,592.3,59.8L592.3,59.8z M593.1,59.5c0.2-0.1,0.2-0.5,0-0.8c-0.2-0.3-0.2-0.3-0.8,0c-0.4,0.2-0.4,0.3-0.3,0.4
	C592.4,59.5,592.7,59.7,593.1,59.5L593.1,59.5z M594.3,58.5c0.1-0.2,0.1-0.2,0-0.5c-0.1-0.2-0.2-0.3-0.2-0.3c-0.1,0-0.8,0.3-0.9,0.4
	c0,0,0.1,0.2,0.2,0.4C593.8,58.8,594,58.8,594.3,58.5L594.3,58.5z M604.1,59.9c-0.2-0.1,0-0.5,0.6-1.1c0.2-0.3,0.4-0.5,0.4-0.5
	l-0.3-0.2c-0.4-0.2-0.7-0.6-0.6-0.7c0.1-0.2,1-0.1,1.4,0.1c0.2,0.1,0.3,0.2,0.4,0.4s0.3,0.3,0.5,0.4c0.3,0.2,0.4,0.2,0.3,0.4
	c-0.2,0.3-0.8,0.9-1.3,1C605.1,60,604.3,60.1,604.1,59.9L604.1,59.9z M621.9,59.9c-0.5-0.2-1.1-0.6-1.3-1c-0.2-0.3-0.2-0.4,0.2-0.6
	c0.2-0.1,0.4-0.2,0.4-0.3c0.1-0.2,0.2-0.3,0.3-0.4c0.3-0.2,1.3-0.3,1.4-0.2c0.1,0.2-0.2,0.6-0.6,0.8c-0.2,0.1-0.3,0.2-0.3,0.2
	s0.1,0.2,0.3,0.4c0.5,0.5,0.9,1.2,0.8,1.3C622.9,60.1,622.4,60,621.9,59.9z M612.7,59c-3.5-0.6-6.3-3.9-7.2-8.6
	c-0.2-1.2-0.2-3.8,0-4.9c0.5-2.7,1.8-5.3,3.4-6.7c0.7-0.6,1.7-1.3,2.4-1.5c0.8-0.3,1.9-0.5,2.7-0.4c0.9,0.1,1.4,0.2,2.2,0.6
	c2.6,1.2,4.6,4,5.3,7.6c0.3,1.3,0.3,4.4,0,5.7c-0.8,4.2-3.3,7.4-6.5,8.2C614.4,59,613.4,59.1,612.7,59L612.7,59z M615.2,58
	c3.1-0.9,5.4-4.5,5.8-8.9c0.5-5.4-2.2-10.4-6-11.5c-1-0.2-2-0.2-3,0c-3.5,1-5.9,5.2-5.9,10.2c0,3.5,1.1,6.4,3.1,8.4
	c1.1,1.1,2.2,1.7,3.5,1.9C613.5,58.4,614.5,58.3,615.2,58z M612.7,57.5c-1.2-0.3-1.1-0.3,0.9-0.3c2.1,0,2.2,0.1,1,0.3
	C613.8,57.6,613.4,57.6,612.7,57.5L612.7,57.5z M610.2,56.2l-0.3-0.2h3.6h3.6l-0.2,0.2l-0.2,0.2h-6.3L610.2,56.2L610.2,56.2z
	 M609.2,55.2c-0.1-0.1-0.2-0.2-0.2-0.2s0.8-0.1,1.7-0.1h1.7l-0.1,0.2l-0.1,0.2h-1.5C609.5,55.4,609.3,55.3,609.2,55.2L609.2,55.2z
	 M613,55c0.3-0.7,0.1-1.3-0.4-1.6c-0.3-0.2-0.8-0.1-1.1,0.2c-0.2,0.3-0.3,0.2-0.3-0.1c0-0.7,0.4-1.1,1.1-1.1c0.3,0,0.4,0.1,0.6,0.3
	c0.3,0.4,0.4,0.3,0.1-0.2c-0.5-0.9-0.3-1.9,0.3-2.7l0.3-0.4l0.2,0.2c0.3,0.4,0.7,1.2,0.7,1.7c0,0.3-0.1,0.6-0.2,1
	c-0.3,0.6-0.2,0.8,0.1,0.4c0.2-0.3,0.3-0.3,0.6-0.3c0.5,0,0.8,0.2,1,0.7c0.1,0.2,0.1,0.4,0,0.6l-0.1,0.2l-0.2-0.2
	c-0.7-0.7-1.9,0-1.6,1c0,0.2,0.1,0.5,0.2,0.5c0.1,0.2,0,0.2-0.6,0.2h-0.7L613,55z M614,51.3c0-0.4-0.3-1.3-0.4-1.3c0,0,0,0.6,0,1.3
	l0,1.3l0.2-0.4C614,51.9,614,51.6,614,51.3L614,51.3z M614.9,55.2c-0.3-0.3-0.2-0.3,1.6-0.3h1.7l-0.2,0.2c-0.2,0.2-0.2,0.2-1.6,0.2
	C615.4,55.4,614.9,55.3,614.9,55.2L614.9,55.2z M608.4,54.1c0-0.1-0.1-0.2-0.1-0.2c0,0,0.5,0,1.2,0c1.1,0,1.2,0,1.3,0.2l0.1,0.2
	h-1.1C608.7,54.2,608.5,54.2,608.4,54.1L608.4,54.1z M611.8,54.2c0-0.1,0.2-0.3,0.4-0.3c0.1,0,0.2,0.1,0.3,0.2
	c0.2,0.2,0.2,0.2-0.3,0.2C612,54.2,611.8,54.2,611.8,54.2L611.8,54.2z M614.7,54.2c0-0.1,0.2-0.3,0.4-0.3c0.1,0,0.2,0.1,0.3,0.2
	c0.2,0.2,0.2,0.2-0.3,0.2C614.8,54.2,614.7,54.2,614.7,54.2L614.7,54.2z M616.4,54.2c0-0.3,0.1-0.4,1.3-0.4s1.3,0.1,1,0.3
	C618.6,54.3,616.4,54.3,616.4,54.2z M607.9,53.1c0,0-0.1-0.1-0.1-0.2c0-0.2,0.1-0.2,1.5-0.2c0.8,0,1.5,0,1.5,0.1
	c0,0.4-0.1,0.4-1.4,0.4C608.6,53.1,607.9,53.1,607.9,53.1L607.9,53.1z M616.5,53c0,0,0-0.2-0.1-0.2c0-0.1,0.1-0.2,1.5-0.2
	c1.3,0,1.5,0,1.5,0.2c0,0.1-0.1,0.2-0.1,0.2c0,0-0.6,0.1-1.4,0.1S616.5,53.1,616.5,53L616.5,53z M607.5,51.9c0,0,0-0.2-0.1-0.2
	c0-0.1,0.2-0.2,2.3-0.2c1.9,0,2.4,0,2.4,0.1c0,0.2-0.8,0.3-2.8,0.3C608.3,52,607.5,52,607.5,51.9z M615.6,51.9
	c-0.1-0.1-0.2-0.1-0.4-0.1s-0.2,0-0.2-0.1c0-0.1,0.6-0.1,2.4-0.1l2.3,0l0,0.2c0,0.2,0,0.2-2,0.2C616.5,52,615.7,52,615.6,51.9
	L615.6,51.9z M607.2,50.7c0-0.1,0-0.2-0.1-0.2c0,0,1.1-0.1,2.6-0.1h2.6v0.5h-2.5C607.5,50.9,607.2,50.9,607.2,50.7L607.2,50.7z
	 M615,50.7c0-0.1-0.1-0.2-0.1-0.2c0,0,1.1-0.1,2.6-0.1h2.6l0,0.2l0,0.2l-2.5,0C615.3,50.9,615,50.9,615,50.7z M607,49.6
	c0-0.1,0-0.2,0-0.2c0.1-0.1,5.9-0.1,5.9,0c0,0-0.1,0.2-0.2,0.2c-0.2,0.1-0.5,0.2-2.9,0.2C607.1,49.8,607,49.8,607,49.6L607,49.6z
	 M614.5,49.6c-0.3-0.4-0.3-0.3,2.8-0.3h3v0.5h-2.8C615.3,49.8,614.6,49.7,614.5,49.6L614.5,49.6z M606.9,48.4v-0.2l6.7,0l6.7,0
	l0,0.2l0,0.2h-13.4L606.9,48.4z M606.9,47.3c0-0.2,0.1-0.2,1.2-0.2c1.2,0,1.2,0,1.1,0.2c-0.1,0.2-0.2,0.2-1.2,0.2
	C607,47.5,606.9,47.5,606.9,47.3L606.9,47.3z M609.8,47.4c0-0.1,0.1-0.3,0.1-0.6c0.1-0.7-0.3-1.3-1-1.3c-0.3,0-0.8,0.2-0.8,0.4
	c0,0,0,0.1-0.1,0.1c0,0-0.1-0.2-0.1-0.4c0-0.4,0-0.5,0.3-0.8c0.5-0.5,0.9-0.4,1.3,0c0.4,0.4,0.4,0.4,0.1-0.4
	c-0.2-0.5-0.2-0.7-0.2-1.1c0-0.5,0.4-1.3,0.7-1.6c0.2-0.1,0.2-0.1,0.4,0.2c0.4,0.4,0.7,1.3,0.7,1.8c0,0.2-0.2,0.6-0.3,0.9
	c-0.1,0.3-0.2,0.6-0.2,0.6c0,0,0.1,0,0.2-0.1c0.3-0.5,0.8-0.7,1.3-0.4c0.4,0.2,0.7,0.9,0.5,1.2c-0.1,0.1-0.1,0.1-0.2,0
	c-0.1-0.1-0.3-0.2-0.4-0.3c-0.3-0.1-0.3-0.1-0.7,0c-0.2,0.1-0.4,0.3-0.5,0.5c-0.2,0.3-0.2,0.4,0,0.9l0.1,0.5h-0.7
	C609.9,47.5,609.8,47.5,609.8,47.4L609.8,47.4z M610.9,43.5c0-0.3-0.1-0.7-0.2-0.9l-0.2-0.4v2.7l0.2-0.4
	C610.8,44.2,610.9,43.8,610.9,43.5z M611.6,47.4c0-0.1,0-0.1-0.1-0.2c0,0,0.9,0,2,0c2,0,2,0,2,0.2c-0.1,0.2-0.2,0.2-2,0.2
	C611.9,47.5,611.7,47.5,611.6,47.4z M616.2,47.4c0.1-0.3,0.2-1,0-1.2c-0.2-0.4-0.5-0.6-0.9-0.6c-0.3,0-0.8,0.2-0.8,0.4
	c0,0,0,0.1-0.1,0.1c0,0-0.1-0.2-0.1-0.4c0-0.4,0-0.5,0.3-0.8c0.5-0.5,0.9-0.4,1.3,0c0.4,0.4,0.4,0.4,0.1-0.4
	c-0.4-0.9-0.2-1.6,0.4-2.5l0.2-0.3l0.3,0.2c0.1,0.1,0.4,0.5,0.5,0.7c0.3,0.7,0.3,1.3,0,2c-0.1,0.3-0.2,0.6-0.2,0.6
	c0,0,0.1,0,0.2-0.1c0.3-0.5,0.8-0.7,1.3-0.4c0.4,0.2,0.7,0.9,0.5,1.2c-0.1,0.1-0.1,0.1-0.2,0c-0.1-0.1-0.3-0.2-0.4-0.3
	c-0.3-0.1-0.3-0.1-0.7,0c-0.2,0.1-0.4,0.3-0.5,0.5c-0.2,0.3-0.2,0.4,0,0.9l0.1,0.5h-0.7C616.2,47.5,616.1,47.5,616.2,47.4
	L616.2,47.4z M617.2,43.5c0-0.3-0.1-0.6-0.2-0.9l-0.2-0.4v1.3v1.3l0.2-0.4C617.2,44.2,617.2,43.8,617.2,43.5z M618,47.4
	c0-0.1,0-0.1-0.1-0.2c0,0,0.5,0,1.2,0c1.2,0,1.2,0,1.2,0.2s-0.1,0.2-1.2,0.2C618.2,47.5,618,47.5,618,47.4L618,47.4z M607,46.2
	c0-0.1,0.1-0.2,0.3-0.2s0.3,0.1,0.3,0.2c0,0.2,0,0.2-0.3,0.2S606.9,46.4,607,46.2z M608.7,46.3c0.1-0.1,0.2-0.1,0.3-0.1
	c0.1,0,0.3,0.1,0.3,0.1c0.1,0.1,0.1,0.1-0.3,0.1C608.6,46.4,608.6,46.4,608.7,46.3z M611.5,46.3c0.1-0.2,0.6-0.2,0.7,0
	c0.1,0.1,0.1,0.1-0.3,0.1C611.6,46.4,611.5,46.4,611.5,46.3z M613.3,46.3c0-0.1,0.1-0.2,0.1-0.2s0.1,0,0.3,0c0.2,0,0.3,0,0.3,0.2
	c0,0.2,0,0.2-0.3,0.2C613.3,46.4,613.2,46.4,613.3,46.3L613.3,46.3z M615,46.3c0.1-0.1,0.2-0.1,0.3-0.1c0.1,0,0.3,0.1,0.3,0.1
	c0.1,0.1,0.1,0.1-0.3,0.1S614.9,46.4,615,46.3z M617.8,46.3c0.1-0.2,0.6-0.2,0.7,0c0.1,0.1,0.1,0.1-0.3,0.1
	C617.9,46.4,617.8,46.4,617.8,46.3z M619.6,46.3c0-0.1,0.1-0.2,0.1-0.2s0.1,0,0.3,0c0.2,0,0.3,0,0.3,0.2c0,0.2-0.1,0.2-0.3,0.2
	C619.6,46.4,619.6,46.4,619.6,46.3z M607.1,45.1c0-0.1,0.1-0.2,0.1-0.2c0,0,0.1,0,0.2,0c0.3,0,0.2,0.3-0.1,0.4
	C607.1,45.3,607.1,45.3,607.1,45.1L607.1,45.1z M613.3,45.1c0-0.2,0-0.2,0.3-0.2c0.3,0,0.3,0,0.3,0.2
	C613.8,45.3,613.4,45.3,613.3,45.1L613.3,45.1z M619.7,45.1c0-0.2,0-0.2,0.2-0.2c0.1,0,0.2,0.1,0.2,0.2
	C620.1,45.4,619.7,45.3,619.7,45.1L619.7,45.1z M607.4,44.1c0-0.1,0.1-0.2,0.1-0.2c0,0,0.3-0.1,0.8-0.1s0.8,0,0.8,0.1
	c0,0.1-0.9,0.4-1.3,0.4C607.4,44.3,607.4,44.2,607.4,44.1L607.4,44.1z M612.2,44.1c-0.2-0.1-0.4-0.2-0.4-0.2s0.8-0.1,1.7-0.1
	c1,0,1.7,0,1.7,0.1s-0.2,0.1-0.5,0.2C614.3,44.3,612.8,44.3,612.2,44.1z M618.6,44.1c-0.2-0.1-0.4-0.2-0.4-0.2c0,0,0.3-0.1,0.8,0
	c0.7,0,0.8,0,0.8,0.2c0,0.2,0,0.2-0.4,0.2C619.2,44.2,618.8,44.2,618.6,44.1z M607.8,42.9c0.1-0.2,0.2-0.2,0.7-0.2
	c0.6,0,0.6,0,0.5,0.2c0,0.2-0.1,0.2-0.7,0.2C607.8,43.2,607.8,43.1,607.8,42.9L607.8,42.9z M611.8,43.1c0,0,0-0.2-0.1-0.2
	c0-0.1,0.1-0.2,1.8-0.2h1.8l0,0.2c0,0.2,0,0.2-1.8,0.2C612.6,43.1,611.9,43.1,611.8,43.1L611.8,43.1z M618.2,43.1c0,0,0-0.2-0.1-0.2
	c0-0.1,0-0.2,0.6-0.2c0.3,0,0.6,0,0.6,0.1s0,0.2,0.1,0.2c0,0.1,0,0.2-0.6,0.2C618.5,43.1,618.2,43.1,618.2,43.1L618.2,43.1z
	 M608.3,41.9c0,0,0-0.2,0.1-0.2c0.1-0.1,0.2-0.2,0.7-0.1l0.6,0l-0.2,0.2c-0.1,0.2-0.2,0.2-0.7,0.2C608.6,42,608.3,42,608.3,41.9
	L608.3,41.9z M611.4,41.9c-0.1-0.1-0.2-0.2-0.2-0.2s1.1-0.1,2.4-0.1h2.4l-0.1,0.2c-0.1,0.2-0.2,0.2-2.3,0.2
	C611.7,42,611.5,42,611.4,41.9L611.4,41.9z M617.7,41.8c0-0.1-0.1-0.2-0.1-0.2c0-0.1,1.1,0,1.2,0.1c0.2,0.2,0.1,0.4-0.4,0.4
	C617.9,42,617.8,42,617.7,41.8L617.7,41.8z M609.1,40.8c0,0,0.1-0.1,0.1-0.2c0.1-0.2,0.4-0.2,4.4-0.1l4.3,0l0.1,0.2l0.1,0.2h-4.6
	C611.1,40.9,609.1,40.9,609.1,40.8L609.1,40.8z M610.2,39.5l0.3-0.2h6.3l0.2,0.2l0.2,0.2h-3.6h-3.6L610.2,39.5z M611.8,38.6
	c0.1-0.1,1.3-0.4,1.8-0.4c0.5,0,1.5,0.2,1.7,0.4c0.1,0.1-0.5,0.1-1.7,0.1C612.5,38.7,611.8,38.6,611.8,38.6L611.8,38.6z M602.9,58.7
	c-0.3-0.1-0.3-0.2,0-0.4c0.3-0.2,0.9-0.2,1.1,0c0.2,0.2,0.1,0.2-0.1,0.3C603.8,58.8,603.3,58.9,602.9,58.7L602.9,58.7z M623.2,58.7
	c-0.3-0.2-0.3-0.3,0.1-0.5c0.4-0.2,0.8-0.1,1.1,0.1l0.2,0.2l-0.3,0.2C624,58.8,623.5,58.8,623.2,58.7L623.2,58.7z M606.8,57.7
	c-0.6-0.7-0.9-0.9-1.4-1l-0.3,0l0.3-0.2c0.2-0.1,0.3-0.2,0.3-0.2c0.1-0.1-0.7-1.2-1-1.4c-0.4-0.3-0.5-0.3-0.9-0.1
	c-0.2,0.1-0.4,0.2-0.7,0.2c-0.6,0-0.7-0.1-0.4-0.3c0.4-0.4,1-0.5,1.7-0.3c0.2,0.1,0.4,0.1,0.4,0.1c0-0.1-0.6-1.6-0.8-1.9
	c-0.2-0.4-0.9-1.1-1-1c-0.7,0.4-1,0.5-1.4,0.4c-0.4-0.1-1.1-0.4-1.1-0.6c0,0,0.2-0.2,0.4-0.3c0.3-0.2,0.5-0.2,1.1-0.2
	c0.8,0,1.3,0.2,2,0.9c0.7,0.6,1,1.1,1.7,2.4c0.8,1.6,1.3,2.3,2.3,3.3l0.9,0.9h-0.4c-0.2,0-0.5,0-0.7,0.1
	C607.4,58.5,607.4,58.4,606.8,57.7L606.8,57.7z M618.9,58.4l-0.6,0l0.7-0.7c0.9-0.9,1.7-1.9,2.3-3.2c0.7-1.4,1.2-2.2,1.8-2.8
	c1.1-1,2.2-1.2,3.2-0.6c0.3,0.2,0.3,0.2,0.2,0.4c-0.2,0.2-0.9,0.5-1.3,0.5c-0.1,0-0.5-0.1-0.7-0.2l-0.4-0.2l-0.3,0.2
	c-0.5,0.3-1,1.1-1.3,2.1c-0.2,0.7-0.2,0.7,0.2,0.5c0.4-0.2,0.9-0.2,1.3,0c0.6,0.3,0.6,0.6-0.2,0.6c-0.2,0-0.5-0.1-0.7-0.2l-0.3-0.2
	l-0.3,0.2c-0.4,0.2-0.6,0.5-1,1.2l-0.2,0.4l0.4,0.2l0.4,0.2l-0.5,0.1c-0.4,0-0.5,0.1-1.2,0.9c-0.4,0.5-0.8,0.8-0.9,0.8
	C619.4,58.4,619.1,58.4,618.9,58.4L618.9,58.4z M591,56.8c-0.7-0.3-0.9-1.4-0.5-1.8c0.1-0.1,0.6-0.4,1.1-0.6
	c0.8-0.3,0.9-0.4,0.9-0.6c0-0.4,0.2-0.2,0.4,0.4c0.2,0.5,0.2,0.8-0.1,0.4l-0.1-0.2l-0.8,0.3c-0.9,0.4-1.3,0.7-1.2,1.1
	c0.1,0.4,0.4,0.7,0.7,0.8c0.1,0,0.6-0.1,1.1-0.3c0.8-0.3,0.8-0.3,0.8-0.6c0-0.4,0.2-0.3,0.4,0.3c0.2,0.5,0.2,0.7-0.1,0.4
	c-0.2-0.2-0.2-0.1-0.9,0.1C591.6,57,591.3,57,591,56.8L591,56.8z M602.6,56.7c-0.2-0.1-0.2-0.1,0.2-0.4c0.4-0.3,0.9-0.5,1.4-0.5
	c0.4,0,0.5,0.1,0.3,0.5C604.1,56.7,603.2,56.9,602.6,56.7L602.6,56.7z M623.3,56.6c-0.3-0.2-0.6-0.4-0.6-0.7c0-0.2,0-0.2,0.3-0.2
	c0.2,0,0.5,0,0.7,0.1c0.4,0.1,1.1,0.7,1,0.8C624.6,56.8,623.6,56.8,623.3,56.6z M601.5,55.7c-0.2-0.1-0.2-0.1,0.1-0.3
	c0.5-0.3,1.3,0,0.9,0.3C602.3,55.9,601.8,55.9,601.5,55.7z M624.6,55.7c-0.2-0.2-0.1-0.2,0.1-0.3c0.3-0.1,0.8-0.1,1,0.2
	c0.1,0.1,0.1,0.2,0,0.2C625.4,55.9,624.8,55.8,624.6,55.7L624.6,55.7z M601.3,54.1c-0.1,0-0.3-0.1-0.4-0.1c-0.1-0.1,0.6-0.7,0.9-0.8
	c0.2-0.1,0.2-0.2,0.2-0.2l-0.1-0.3c0-0.1,0-0.1,0.1-0.1c0.1,0,0.3,0.1,0.5,0.1c0.4,0.1,0.7,0.3,0.6,0.7
	C603.2,53.8,602,54.2,601.3,54.1z M625.1,54.1c-1.4-0.3-1.6-1.3-0.3-1.5c0.4-0.1,0.4,0,0.3,0.3c-0.1,0.1,0,0.2,0.3,0.4
	c0.2,0.1,0.5,0.3,0.6,0.5c0.2,0.2,0.2,0.2,0,0.3c-0.1,0-0.2,0.1-0.3,0.1c-0.1,0-0.2,0-0.3,0C625.4,54.1,625.2,54.1,625.1,54.1
	L625.1,54.1z M591,53.2c-0.2-0.2-0.3-0.5-0.4-0.6c-0.1-0.3-0.2-0.3-0.7-0.2c-0.3,0.1-0.3,0.1-0.3,0.3c0,0.1,0,0.2-0.1,0.2
	c0,0-0.2-0.2-0.2-0.6c-0.1-0.6-0.1-0.8,0.2-0.5c0.1,0.1,0.2,0.1,1.3-0.1c1-0.2,1.2-0.3,1.2-0.5c0.1-0.4,0.2-0.2,0.4,0.6
	c0.2,0.9,0.2,1.2-0.1,1.5C591.7,53.6,591.4,53.5,591,53.2L591,53.2z M591.9,52.9c0.1-0.1,0.2-0.2,0.2-0.4c0-0.5-0.1-0.5-0.7-0.4
	c-0.5,0.1-0.5,0.1-0.5,0.4C591,53,591.5,53.2,591.9,52.9L591.9,52.9z M622.3,51.8c0.2-0.5,0.4-2.1,0.5-3.1c0.1-1.1-0.1-3-0.4-4.3
	c-0.5-2.3-0.2-3.5,1-4.1c0.3-0.2,0.7-0.3,0.8-0.3c0.2,0,0.2,0,0.2,0.3c-0.1,0.5-0.5,1.1-0.8,1.2c-0.2,0.1-0.4,0.2-0.6,0.2l-0.3,0.1
	v0.7c0,0.7,0,0.7,0.3,1.2c0.2,0.3,0.5,0.6,0.7,0.8c0.3,0.2,0.3,0.2,0.5,0.1c0.4-0.4,1.3-0.3,1.9,0.2c0.3,0.2,0.3,0.3,0.2,0.4
	c-0.2,0.1-0.7,0.3-1,0.3c-0.4,0-1.1-0.2-1.6-0.5c-0.5-0.3-0.5-0.3-0.3,0.5l0.1,0.5l0.5,0l0.5,0L624,46c-0.4,0.2-0.6,0.7-0.5,1.2
	l0,0.3l0.5-0.3c0.8-0.5,2-0.7,2.5-0.3c0.2,0.1,0.2,0.1-0.1,0.4c-0.4,0.4-0.9,0.5-1.7,0.3l-0.6-0.2l-0.2,0.3
	c-0.7,0.9-0.5,2.2,0.5,2.6c0.3,0.1,0.3,0.1-0.2,0.1c-0.3,0-0.5-0.1-0.6-0.1c-0.1-0.1-0.2,0-0.2,0.4s-0.1,0.5-0.6,1l-0.5,0.6
	L622.3,51.8L622.3,51.8z M604.4,51.6c-0.4-0.4-0.5-0.6-0.5-0.9c-0.1-0.4-0.1-0.5-0.2-0.4c-0.1,0-0.4,0-0.7,0.1l-0.5,0l0.4-0.2
	c0.2-0.1,0.4-0.3,0.6-0.5c0.2-0.4,0.2-1.2,0-1.7c-0.3-0.6-0.4-0.6-0.9-0.4c-0.6,0.2-1.2,0.1-1.6-0.2c-0.5-0.3-0.4-0.5,0.2-0.6
	c0.7-0.2,1.4,0,2,0.4c0.2,0.1,0.3,0.2,0.5,0.3c0,0,0-0.2,0-0.4c0-0.5-0.2-0.9-0.5-1.1c-0.3-0.1-0.2-0.1,0.2-0.1l0.5,0l0.1-0.6
	c0.1-0.3,0.1-0.6,0.1-0.6c0,0-0.2,0.1-0.4,0.2c-0.3,0.2-0.6,0.3-1,0.4c-0.5,0.1-0.7,0.1-1.1,0c-0.7-0.2-0.8-0.3-0.4-0.6
	c0.7-0.5,1.2-0.6,1.8-0.3l0.3,0.2l0.4-0.3c0.7-0.6,1.1-1.5,1-2.3c0-0.3-0.1-0.3-0.3-0.3c-0.7,0-1.4-0.6-1.6-1.5
	c-0.1-0.3,0.1-0.3,0.7-0.1c0.9,0.3,1.5,1,1.5,2.2c0,0.5,0,1-0.2,2.1c-0.5,2.4-0.5,5,0,7c0.1,0.4,0.1,0.7,0.1,0.7
	C604.8,52.1,604.6,51.9,604.4,51.6L604.4,51.6z M601.7,49.8c-0.2-0.1,0-0.4,0.4-0.6c0.4-0.1,0.8,0,0.8,0.2c0,0.1,0,0.2,0,0.2
	s-0.1,0.1-0.3,0.2C602.2,49.9,601.9,49.9,601.7,49.8L601.7,49.8z M624.5,49.6l-0.3-0.3l0.3-0.1c0.3-0.1,0.8,0,1,0.3
	c0.2,0.2,0,0.3-0.4,0.3C624.9,49.9,624.7,49.8,624.5,49.6L624.5,49.6z M588.9,49.7c0-0.1-0.1-0.4-0.1-0.7c0-0.5,0-0.7,0.2-0.3
	c0.1,0.2,0.2,0.2,1,0.1c1.3-0.1,1.5-0.1,1.5-0.3c0-0.1,0-0.2,0.1-0.2c0.1,0,0.2,0.2,0.2,0.8c0,0.5-0.1,0.6-0.2,0.3
	c-0.1-0.2,0.1-0.2-1.9,0c-0.5,0-0.6,0.1-0.6,0.2C589.1,49.7,588.9,49.8,588.9,49.7L588.9,49.7z M600.4,48.7
	c-0.3-0.2-0.3-0.2-0.2-0.4c0.4-0.4,1.3-0.4,1.8,0l0.2,0.2l-0.3,0.2C601.5,49,600.8,49,600.4,48.7L600.4,48.7z M625.3,48.8
	c-0.3-0.2-0.3-0.2-0.1-0.5c0.4-0.4,1.4-0.4,1.7,0c0.2,0.2,0.2,0.2-0.2,0.4C626.4,49,625.6,49,625.3,48.8L625.3,48.8z M589.7,47.7
	c-0.7-0.3-1.2-1.1-1-1.8c0.3-1,1.5-1.3,2.3-0.8c0.5,0.3,0.7,0.7,0.7,1.2c0,0.5-0.2,0.8-0.6,1.2C590.8,47.8,590.1,47.8,589.7,47.7z
	 M590.7,47.2c0.2,0,0.7-0.4,0.8-0.7c0.1-0.4-0.1-0.8-0.5-1c-0.2-0.1-0.5-0.1-0.9-0.1c-0.5,0-0.6,0.1-0.8,0.3
	c-0.2,0.3-0.3,0.7-0.1,1.1c0.2,0.3,0.9,0.6,1.3,0.5C590.5,47.3,590.6,47.2,590.7,47.2L590.7,47.2z M591.3,44.5
	c-0.2-0.1-0.2-0.3,0.1-0.3c0.2,0,0.2-0.1,0.3-0.3c0.1-0.6,0.1-0.6-0.4-0.7c-0.2,0-0.5,0-0.5,0c0,0-0.1,0.2-0.1,0.4
	c0,0.2-0.1,0.4-0.2,0.4c-0.1,0-0.1-0.1-0.1-0.4l0-0.5l-0.3-0.1c-0.2,0-0.5-0.1-0.6-0.1c-0.2,0-0.3,0-0.3,0.2c0,0.1-0.1,0.2-0.2,0.2
	c-0.1,0-0.1-0.5,0.1-1.1c0.1-0.3,0.2-0.3,0.2,0c0,0.2,0.1,0.2,1.2,0.4c1.1,0.2,1.2,0.2,1.3,0c0.2-0.3,0.3-0.1,0.2,0.7
	C591.8,44.6,591.8,44.6,591.3,44.5z M602.3,43.7c-0.3-0.1-0.3-0.2,0-0.4s0.8-0.2,1.1,0c0.2,0.1,0.2,0.2,0,0.3
	C603.2,43.8,602.5,43.8,602.3,43.7z M624,43.7c-0.1-0.1-0.3-0.2-0.3-0.2c0-0.1,0.3-0.3,0.7-0.3c0.4,0,0.8,0.3,0.7,0.5
	C624.9,43.8,624.2,43.8,624,43.7L624,43.7z M601.2,42.6c-0.1-0.1-0.2-0.1-0.2-0.2s0.2-0.2,0.5-0.3c0.5-0.3,0.5-0.3,0.4-0.5
	c-0.1-0.1-0.1-0.2-0.1-0.4c0-0.1,0-0.2,0.2-0.1c0.4,0.1,0.7,0.5,0.7,0.7c0,0.1,0.1,0.3,0.1,0.4c0.1,0.2,0.1,0.2-0.1,0.3
	C602.5,42.7,601.6,42.7,601.2,42.6z M624.4,42.6c-0.3-0.1-0.3-0.3-0.1-0.5c0.1-0.1,0.1-0.2,0.1-0.2c-0.1-0.2,0.1-0.5,0.5-0.7
	l0.4-0.2v0.2c0,0.1-0.1,0.3-0.1,0.4c-0.1,0.2-0.1,0.2,0.4,0.4c0.3,0.1,0.5,0.3,0.5,0.3C626.1,42.6,625,42.8,624.4,42.6L624.4,42.6z
	 M605.4,42c-0.2-0.2-0.1-0.8,0.2-1.5c0.2-0.4,0.4-0.9,0.4-1.1c0-0.4,0-0.4-0.3-0.6c-0.5-0.3-0.8-0.8-0.8-1.5c0-0.3,0-0.6,0.1-0.7
	c0.1-0.2,0.1-0.1,0.6,0.1c0.3,0.2,0.5,0.5,0.7,0.8c0.2,0.4,0.3,0.5,0.3,1.2c0,0.5-0.1,0.9-0.2,1.2C606.2,40.7,605.5,42.2,605.4,42z
	 M621.4,41.5c-1-2-1.1-3.2-0.5-4.2c0.3-0.4,1-1,1.2-0.8c0,0,0.1,0.4,0.1,0.7c0,0.5,0,0.7-0.2,1c-0.2,0.4-0.6,0.8-0.9,0.9
	c-0.1,0,0.1,0.8,0.4,1.7c0.3,0.6,0.3,0.8,0.2,1.1l-0.1,0.4L621.4,41.5z M590.7,40.1c-0.3-0.3-0.1-0.7,0.3-0.7c0.2,0,0.4,0.2,0.4,0.4
	c0,0,0,0,0,0c0,0.2-0.2,0.4-0.4,0.4c0,0,0,0,0,0C590.9,40.3,590.8,40.2,590.7,40.1z M604.4,39.7c-0.3-0.2-0.6-0.6-0.6-1
	c0-0.2,0.1-0.2,0.5,0c0.3,0.2,0.6,0.6,0.6,1C605,39.9,604.8,39.9,604.4,39.7z M622.2,39.7c0-0.2,0.2-0.7,0.4-0.9
	c0.1-0.1,0.3-0.2,0.4-0.2c0.2-0.1,0.3,0,0.3,0.2c0,0.4-0.2,0.8-0.6,0.9C622.3,39.9,622.2,39.9,622.2,39.7z M607.5,38.3
	c0.1-0.6-0.1-1.3-1.1-3.3c-1-2-1.1-2.3-0.5-1.9c0.3,0.2,0.3,0.2,0.8,0c0.3-0.1,0.5-0.2,0.6-0.2s0.2,0.2,0.3,0.4
	c0.3,0.5,0.6,0.6,0.9,0.4c0.2-0.2,0.2-0.2,0.2-0.6c-0.1-0.8-0.2-0.8,0.7-1.1c0.4-0.2,0.9-0.4,1-0.4c0.1,0,0.2,0,0.3,0.3
	c0.2,0.5,0.5,0.8,0.8,0.7c0.4-0.1,0.5-0.4,0.3-1c-0.1-0.3-0.1-0.6-0.1-0.6c0.1-0.1,1.7-0.7,1.8-0.7c0.1,0,0.5,0.2,1,0.4
	c0.7,0.3,0.8,0.4,0.8,0.5c0,0.1,0,0.4-0.1,0.7c-0.1,0.4,0,0.5,0.2,0.6c0.3,0.2,0.6,0.1,0.9-0.5l0.2-0.5l0.8,0.3
	c0.4,0.2,0.9,0.4,1,0.4c0.2,0.1,0.2,0.1,0.2,0.2c0,0.1-0.1,0.4-0.1,0.6c0,0.4,0,0.5,0.2,0.6c0.3,0.2,0.6,0.1,0.9-0.4
	c0.1-0.2,0.2-0.4,0.3-0.4s0.4,0.1,0.6,0.2c0.5,0.2,0.5,0.2,0.7,0s0.4-0.2,0.5-0.1c0,0-0.4,0.9-0.9,1.9c-1,1.9-1.2,2.7-1.1,3.3l0,0.3
	l-0.6-0.6c-0.3-0.3-0.7-0.6-1-0.9c-0.2-0.1-0.4-0.3-0.4-0.3c0-0.1,0.8-0.7,0.9-0.7c0,0,0.1,0.1,0.1,0.2c0,0.2,0.2,0.4,0.3,0.4
	c0.1,0,0.2-0.2,0.3-0.5c0.3-0.5,0.3-0.5-0.5-1c-1.2-0.7-3.3-1.4-4.4-1.4c-0.4,0-0.5-0.1-0.3-0.4c0.5-0.5,4,0.6,5.4,1.6
	c0.2,0.1,0.3,0.2,0.3,0.1c0.1-0.1,0.8-1.3,0.8-1.4c0,0-0.2-0.1-0.3-0.2c-0.3-0.1-0.3-0.1-0.6,0.2c-0.3,0.3-0.7,0.4-1.3,0.2
	c-0.4-0.2-0.7-0.7-0.6-1c0-0.2,0-0.2-0.5-0.4l-0.5-0.2l-0.3,0.3c-0.4,0.4-0.7,0.5-1.1,0.3c-0.4-0.2-0.7-0.5-0.7-1
	c0-0.3-0.1-0.4-0.3-0.5c-0.3-0.1-0.4-0.1-0.4,0.3c0,0.2-0.4,1.4-0.5,1.4c-0.1,0-0.4-1-0.5-1.5c0-0.2-0.1-0.3-0.2-0.2
	c-0.1,0-0.2,0.1-0.3,0.1c-0.1,0-0.2,0.1-0.2,0.5c0,0.4,0,0.5-0.3,0.7c-0.5,0.5-1.3,0.4-1.7-0.1l-0.2-0.2l-0.5,0.2
	c-0.5,0.2-0.5,0.2-0.6,0.6c0,0.6-0.4,0.9-1,1c-0.4,0-0.5,0-0.8-0.2c-0.3-0.3-0.3-0.3-0.6-0.2c-0.2,0.1-0.3,0.2-0.3,0.2
	c0,0.1,0.5,1,0.7,1.4c0.1,0.1,0.2,0,0.9-0.4c1.7-1,4.2-1.7,4.9-1.3c0.4,0.2,0.2,0.3-0.5,0.4c-0.9,0.1-2,0.3-2.9,0.8
	c-0.8,0.3-1.8,0.9-1.9,1.1c0,0,0.1,0.3,0.2,0.5c0.2,0.4,0.3,0.5,0.5,0.3c0.1-0.1,0.2-0.2,0.2-0.4c0-0.1,0-0.2,0-0.2
	c0.1,0,0.9,0.6,0.9,0.7c0,0-0.2,0.2-0.5,0.4c-0.4,0.3-0.7,0.6-1,0.9C607.5,38.6,607.5,38.6,607.5,38.3L607.5,38.3z M592.6,37.5
	c-0.4-0.2-0.9-0.5-1-0.8c-0.2-0.4-0.2-1,0-1.5c0.3-0.6,0.4-0.7,0.7-0.4c0.4,0.3,0.4,0.4,0,0.4c-0.3,0-0.3,0-0.5,0.2
	c-0.3,0.5-0.1,1.1,0.5,1.5c0.4,0.2,1,0.3,1.3,0.1c0.3-0.1,0.5-0.6,0.4-0.9c0-0.3,0.1-0.4,0.2-0.1c0.2,0.4-0.1,1.2-0.5,1.5
	C593.5,37.6,593,37.7,592.6,37.5L592.6,37.5z M609.8,36.2c-0.1-0.1-0.2-0.3-0.2-0.5c0-0.2,0.1-0.3,0.8-0.5c0.8-0.3,0.8-0.3,1-0.2
	c0.3,0.2,0.3,0.8,0,0.7c-0.2-0.1-1.4,0.4-1.4,0.6C610.2,36.5,610,36.5,609.8,36.2z M617,36.3c0-0.2-1.2-0.6-1.4-0.5
	c-0.1,0.1-0.1,0-0.2-0.1c-0.1-0.3,0-0.5,0.3-0.6c0.2-0.1,0.3-0.1,1,0.2c0.7,0.3,0.8,0.3,0.8,0.6c0,0.2,0,0.3-0.2,0.5
	C617.1,36.5,617,36.5,617,36.3z M594.7,35.5c0-0.1-0.4-0.7-0.8-1.3c-0.8-1.1-1-1.4-0.6-1.5c0.1,0,0.7,0.1,1.4,0.3
	c0.8,0.2,1.4,0.4,1.5,0.3l0.3-0.1l-0.3,0.5c-0.2,0.3-0.4,0.5-0.4,0.5c-0.1,0-0.2,0,0-0.3c0.1-0.1,0-0.2-0.3-0.3
	c-0.3-0.1-0.4-0.1-0.5,0c0,0.1-0.2,0.3-0.3,0.4l-0.2,0.3l0.2,0.3c0.2,0.3,0.2,0.3,0.4,0.2c0.3-0.2,0.3,0,0,0.4
	C594.8,35.7,594.7,35.8,594.7,35.5z M594.5,33.8c0.1-0.2,0.2-0.3,0.1-0.4c-0.1-0.1-1.2-0.4-1.2-0.3c0,0.1,0.7,1,0.8,1
	C594.3,34.1,594.4,34,594.5,33.8z M612.6,35.4c-0.1-0.2-0.1-0.3,0-0.5c0.1-0.2,0.2-0.3,1-0.3c0.8,0,0.9,0,1,0.2
	c0.1,0.2,0.1,0.3,0,0.5c-0.1,0.2-0.2,0.3-0.3,0.1c-0.1-0.2-1.4-0.1-1.5,0C612.8,35.7,612.7,35.7,612.6,35.4L612.6,35.4z M596.6,32.8
	c0-0.2-0.1-0.4-0.8-1c-0.8-0.6-0.9-0.7-1-0.6c-0.3,0.2-0.3,0,0.1-0.5c0.3-0.3,0.4-0.4,0.5-0.4c0.1,0.1,0,0.1,0,0.2
	c-0.1,0.2-0.2,0.1,0.9,1.1c0.8,0.7,0.9,0.7,1,0.6c0.1-0.1,0.2-0.1,0.2,0c0,0.1-0.6,0.8-0.8,0.9C596.6,33.1,596.6,33,596.6,32.8z
	 M597.4,31.4c-0.3-0.4-0.3-0.5,0.2-0.3c0.3,0.1,0.3,0.1,0.5-0.1c0.3-0.3,0.4-0.5,0.2-0.8s-0.5-0.2-0.9,0c-0.5,0.2-0.9,0.2-1.2-0.1
	c-0.4-0.4-0.2-0.9,0.4-1.4c0.4-0.3,0.5-0.3,0.7,0c0.2,0.3,0.1,0.4-0.2,0.2c-0.2-0.1-0.3-0.1-0.5,0.1c-0.3,0.3-0.3,0.6,0,0.7
	c0.2,0.1,0.2,0.1,0.7,0c0.7-0.3,1.1-0.2,1.3,0.1c0.3,0.4,0.3,0.6,0.1,0.9c-0.2,0.3-0.8,0.9-1,0.9C597.7,31.7,597.5,31.6,597.4,31.4
	L597.4,31.4z M599.2,29.7c-0.2-0.4-0.1-0.5,0.2-0.3c0.3,0.2,0.4,0.2,0.7,0c0.2-0.1,0.2-0.3,0.2-0.5c0-0.4-0.2-0.5-0.6-0.4
	c-1.2,0.2-1.2,0.2-1.5-0.1c-0.5-0.5-0.2-1,0.5-1.5c0.4-0.2,0.4-0.2,0.6,0.2c0.2,0.3,0,0.4-0.2,0.2c-0.2-0.1-0.2-0.1-0.5,0
	c-0.5,0.3-0.4,0.9,0.2,0.8c1.3-0.2,1.3-0.2,1.5,0.1c0.3,0.3,0.3,0.8,0.1,1.1c-0.2,0.3-0.7,0.6-1,0.6C599.4,30,599.3,30,599.2,29.7z
	 M613.1,29.6c-0.3-0.3-0.3-0.6,0-0.9c0.2-0.3,0.7-0.3,1-0.1c0,0,0,0,0,0c0.3,0.3,0.2,0.7,0,1c0,0,0,0,0,0
	C613.7,29.9,613.4,29.9,613.1,29.6z M601.4,28.5c0,0,0-0.1,0.1-0.2c0.1-0.1-0.1-0.5-0.7-1.4l-0.2-0.2h0.6h0.6l-0.3,0.2l-0.3,0.2
	l0.2,0.3c0.4,0.6,0.4,0.6,0.8,0.4c0.3-0.2,0.4-0.2,0.3-0.5c0-0.2,0-0.3,0.1-0.3c0.1,0,0.4,0.4,0.4,0.5c0,0-1.5,1-1.7,1
	C601.5,28.6,601.4,28.6,601.4,28.5L601.4,28.5z M604.7,26.7c0,0,0.1-0.1,0.1-0.1s0.1,0,0.1,0s-0.1,0.1-0.1,0.1
	C604.7,26.8,604.7,26.8,604.7,26.7L604.7,26.7z"/>
</svg>
