<svg width="266" height="68" viewBox="0 0 266 68" fill="none" xmlns="http://www.w3.org/2000/svg">
<g clip-path="url(#clip0_20_1204)">
<path d="M33.9038 36.2013C35.1167 36.2013 36.1 35.2149 36.1 33.998C36.1 32.7811 35.1167 31.7947 33.9038 31.7947C32.6909 31.7947 31.7076 32.7811 31.7076 33.998C31.7076 35.2149 32.6909 36.2013 33.9038 36.2013Z" fill="#0AAE59"/>
<path d="M33.9117 58.4856C37.136 58.4856 39.7497 55.8633 39.7497 52.6286C39.7497 49.394 37.136 46.7717 33.9117 46.7717C30.6875 46.7717 28.0738 49.394 28.0738 52.6286C28.0738 55.8633 30.6875 58.4856 33.9117 58.4856Z" fill="#0AAE59"/>
<path d="M29.1381 65.733C28.4749 66.3984 27.4384 66.6016 26.5647 66.1235C21.8109 63.5138 18.5941 58.4457 18.5941 52.6287C18.5941 48.3894 20.3097 44.5405 23.0738 41.7595L27.7243 37.0939C28.5782 36.2373 29.9681 36.2373 30.826 37.0939C30.9491 37.2174 31.0603 37.3568 31.1437 37.5043C31.3581 37.8549 31.4654 38.2493 31.4654 38.6517C31.4654 39.2095 31.2469 39.7753 30.822 40.2016L26.3065 44.7318C26.2589 44.7716 26.2112 44.8194 26.1675 44.8633C24.1858 46.8514 22.9626 49.5926 22.9626 52.6247C22.9626 56.7803 25.266 60.406 28.6616 62.2667C29.5909 62.7767 30.0039 63.9002 29.6544 64.9003C29.5432 65.223 29.3565 65.5059 29.1302 65.733H29.1381Z" fill="#0AAE59"/>
<path d="M33.9157 67.9962C35.1242 67.9962 36.104 67.0133 36.104 65.8008C36.104 64.5884 35.1242 63.6055 33.9157 63.6055C32.7072 63.6055 31.7275 64.5884 31.7275 65.8008C31.7275 67.0133 32.7072 67.9962 33.9157 67.9962Z" fill="#0AAE59"/>
<path d="M41.2906 66.0995C40.1071 66.753 38.6218 66.1752 38.177 64.8923C37.895 64.0875 38.1016 63.203 38.6814 62.6212C38.8164 62.4858 38.9753 62.3662 39.154 62.2666C42.6448 60.3542 44.984 56.589 44.8569 52.29C44.7775 49.4213 43.5543 46.7996 41.6401 44.8752L36.9816 40.2016C36.2469 39.4645 36.1437 38.3409 36.6639 37.4923C36.7513 37.3449 36.8545 37.2094 36.9816 37.0859C37.4105 36.6556 37.9705 36.4404 38.5344 36.4404C39.0984 36.4404 39.6583 36.6556 40.0873 37.0859L44.7457 41.7595C47.2715 44.2935 48.9315 47.708 49.2056 51.4851C49.6583 57.7684 46.3422 63.3225 41.2906 66.0995Z" fill="#0AAE59"/>
<path d="M26.3105 44.7278L26.1755 44.8632C26.2191 44.8154 26.2668 44.7676 26.3145 44.7278H26.3105Z" fill="#0AAE59"/>
<path d="M52.478 39.843C55.7022 39.843 58.316 37.2208 58.316 33.9861C58.316 30.7514 55.7022 28.1292 52.478 28.1292C49.2538 28.1292 46.6401 30.7514 46.6401 33.9861C46.6401 37.2208 49.2538 39.843 52.478 39.843Z" fill="#0AAE59"/>
<path d="M65.6154 36.1815C66.8239 36.1815 67.8036 35.1986 67.8036 33.9861C67.8036 32.7737 66.8239 31.7908 65.6154 31.7908C64.4068 31.7908 63.4271 32.7737 63.4271 33.9861C63.4271 35.1986 64.4068 36.1815 65.6154 36.1815Z" fill="#0AAE59"/>
<path d="M63.3199 44.8551C60.7742 47.4091 57.5654 48.8713 54.2492 49.2578C53.0499 49.3972 51.9617 48.5326 51.8188 47.3254C51.6837 46.1341 52.5257 45.0544 53.7052 44.895C53.7171 44.895 53.729 44.895 53.7409 44.895C56.1079 44.624 58.4033 43.5762 60.2222 41.7474C60.941 41.0262 61.5884 40.1377 62.0649 39.2891C62.6487 38.2293 63.9792 37.8428 65.0435 38.4285C66.0999 39.0142 66.4891 40.3529 65.9013 41.4167C65.2222 42.6518 64.3644 43.8113 63.3239 44.8551H63.3199Z" fill="#0AAE59"/>
<path d="M58.3954 19.7979C61.7155 21.1924 64.281 23.6188 65.8934 26.5512C66.4772 27.6111 66.0919 28.9498 65.0316 29.5395C63.9831 30.1172 62.6686 29.7427 62.0769 28.7068C62.0689 28.6988 62.0689 28.6868 62.061 28.6749C60.9132 26.5791 59.0745 24.846 56.7036 23.8499C55.7663 23.4554 54.702 23.1925 53.7369 23.073C52.5376 22.9335 51.6798 21.8458 51.8148 20.6346C51.9538 19.4313 53.0419 18.5667 54.2453 18.7062C55.6392 18.8695 57.0372 19.2241 58.3954 19.7979Z" fill="#0AAE59"/>
<path d="M33.9038 36.2013C35.1167 36.2013 36.1 35.2149 36.1 33.998C36.1 32.7811 35.1167 31.7947 33.9038 31.7947C32.6909 31.7947 31.7076 32.7811 31.7076 33.998C31.7076 35.2149 32.6909 36.2013 33.9038 36.2013Z" fill="#0AAE59"/>
<path d="M33.8959 21.2282C37.1201 21.2282 39.7338 18.606 39.7338 15.3713C39.7338 12.1366 37.1201 9.5144 33.8959 9.5144C30.6716 9.5144 28.0579 12.1366 28.0579 15.3713C28.0579 18.606 30.6716 21.2282 33.8959 21.2282Z" fill="#0AAE59"/>
<path d="M38.6655 2.26697C39.3287 1.6016 40.3652 1.3984 41.2389 1.87651C45.9927 4.48623 49.2095 9.55426 49.2095 15.3713C49.2095 19.6106 47.4939 23.4595 44.7298 26.2405L40.0793 30.9061C39.2255 31.7627 37.8355 31.7627 36.9776 30.9061C36.8545 30.7826 36.7433 30.6431 36.6599 30.4957C36.4455 30.1451 36.3382 29.7507 36.3382 29.3482C36.3382 28.7904 36.5567 28.2247 36.9816 27.7983L41.4971 23.2682C41.5447 23.2284 41.5924 23.1806 41.6361 23.1367C43.6178 21.1486 44.841 18.4074 44.841 15.3753C44.841 11.2197 42.5376 7.59398 39.1421 5.73331C38.2127 5.22332 37.7997 4.09975 38.1492 3.09969C38.2604 2.77696 38.4471 2.49408 38.6734 2.26697H38.6655Z" fill="#0AAE59"/>
<path d="M33.8879 4.3907C35.0964 4.3907 36.0761 3.40781 36.0761 2.19535C36.0761 0.982891 35.0964 0 33.8879 0C32.6794 0 31.6997 0.982891 31.6997 2.19535C31.6997 3.40781 32.6794 4.3907 33.8879 4.3907Z" fill="#0AAE59"/>
<path d="M26.517 1.89661C27.7005 1.24318 29.1858 1.82091 29.6306 3.10385C29.9125 3.90868 29.706 4.79319 29.1262 5.3749C28.9912 5.51036 28.8323 5.62989 28.6536 5.7295C25.1627 7.64196 22.8236 11.4071 22.9507 15.7062C23.0301 18.5749 24.2533 21.1965 26.1675 23.121L30.826 27.7945C31.5607 28.5316 31.6639 29.6552 31.1437 30.5039C31.0563 30.6513 30.953 30.7867 30.826 30.9103C30.397 31.3406 29.8371 31.5557 29.2731 31.5557C28.7092 31.5557 28.1492 31.3406 27.7203 30.9103L23.0619 26.2367C20.5361 23.7027 18.876 20.2881 18.602 16.511C18.1493 10.2278 21.4654 4.67366 26.517 1.89661Z" fill="#0AAE59"/>
<path d="M41.4931 23.2683L41.6282 23.1328C41.5845 23.1806 41.5368 23.2284 41.4892 23.2683H41.4931Z" fill="#0AAE59"/>
<path d="M15.3256 39.8708C12.1008 39.8708 9.48766 37.2492 9.48766 34.0139C9.48766 30.7787 12.1008 28.157 15.3256 28.157C18.5504 28.157 21.1636 30.7787 21.1636 34.0139C21.1636 37.2492 18.5504 39.8708 15.3256 39.8708Z" fill="#0AAE59"/>
<path d="M2.18824 36.2054C3.39677 36.2054 4.37648 35.2225 4.37648 34.01C4.37648 32.7976 3.39677 31.8147 2.18824 31.8147C0.979708 31.8147 0 32.7976 0 34.01C0 35.2225 0.979708 36.2054 2.18824 36.2054Z" fill="#0AAE59"/>
<path d="M4.48371 23.1408C7.02937 20.5869 10.2383 19.1246 13.5544 18.7381C14.7537 18.5987 15.8419 19.4633 15.9849 20.6705C16.1199 21.8618 15.278 22.9416 14.0985 23.1009C14.0865 23.1009 14.0746 23.1009 14.0627 23.1009C11.6958 23.3719 9.40029 24.4198 7.5814 26.2485C6.86257 26.9697 6.21524 27.8582 5.73867 28.7069C5.15487 29.7667 3.82446 30.1532 2.76012 29.5675C1.70373 28.9818 1.31454 27.643 1.9023 26.5792C2.58141 25.3441 3.43923 24.1847 4.47974 23.1408H4.48371Z" fill="#0AAE59"/>
<path d="M9.40823 48.2019C6.08815 46.8074 3.52263 44.381 1.91024 41.4486C1.32645 40.3887 1.71167 39.05 2.77203 38.4603C3.82048 37.8826 5.13501 38.2571 5.72675 39.2931C5.73469 39.301 5.73469 39.313 5.74264 39.3249C6.89037 41.4207 8.72913 43.1538 11.1 44.1499C12.0373 44.5444 13.1016 44.8073 14.0667 44.9269C15.266 45.0663 16.1239 46.154 15.9888 47.3652C15.8498 48.5685 14.7617 49.4331 13.5583 49.2936C12.1644 49.1303 10.7664 48.7757 9.40823 48.2019Z" fill="#0AAE59"/>
<path d="M109.734 38.811C109.734 42.8391 106.878 46.9469 100.961 46.9469H89.0029V18.3477H100.091C105.055 18.3477 108.201 21.3359 108.201 25.6947C108.201 27.9379 107.375 30.6352 104.475 31.6711C107.95 32.3764 109.73 35.6554 109.73 38.811H109.734ZM99.8885 22.8738H94.0545V29.8902H99.8885C101.997 29.8902 103.157 28.4797 103.157 26.4039C103.157 24.3281 102.081 22.8738 99.8885 22.8738ZM100.178 42.4248C103.117 42.4248 104.646 40.4725 104.646 38.317C104.646 36.285 103.324 34.1653 100.302 34.1653H94.0545V42.4248H100.178Z" fill="#000000"/>
<path d="M116.89 46.9469V18.3477H121.938V46.9469H116.89Z" fill="#000000"/>
<path d="M129.05 32.6672C129.05 24.5751 135.381 17.8496 143.53 17.8496C151.679 17.8496 158.01 24.5751 158.01 32.6672C158.01 40.7593 151.64 47.445 143.53 47.445C135.421 47.445 129.05 40.7633 129.05 32.6672ZM152.966 32.6672C152.966 27.1888 148.951 22.579 143.49 22.579C138.03 22.579 134.142 27.1848 134.142 32.6672C134.142 38.1496 138.073 42.7116 143.49 42.7116C148.907 42.7116 152.966 38.1456 152.966 32.6672Z" fill="#000000"/>
<path d="M182.505 18.3477V22.8738H174.356V46.9469H169.308V22.8738H161.159V18.3477H182.509H182.505Z" fill="#000000"/>
<path d="M193.637 42.4208H206.544V46.9469H188.629V18.3477H206.131V22.8738H193.637V30.5954H204.559V35.2012H193.637V42.4248V42.4208Z" fill="#000000"/>
<path d="M211.469 32.6672C211.469 24.5751 217.799 17.8496 225.949 17.8496C234.098 17.8496 240.428 24.5751 240.428 32.6672C240.428 40.7593 234.058 47.445 225.949 47.445C217.839 47.445 211.469 40.7633 211.469 32.6672ZM235.381 32.6672C235.381 27.1888 231.365 22.579 225.905 22.579C220.444 22.579 216.556 27.1848 216.556 32.6672C216.556 38.1496 220.488 42.7116 225.905 42.7116C231.322 42.7116 235.381 38.1456 235.381 32.6672Z" fill="#000000"/>
<path d="M245.889 38.6875H250.897C250.937 40.9306 253.049 42.9626 256.191 42.9626C259.086 42.9626 260.948 41.1777 260.948 38.9345C260.948 36.9424 259.253 35.7789 256.854 35.1176L253.296 34.1215C247.172 32.5437 246.095 28.8503 246.095 26.3601C246.095 21.296 250.523 17.8496 255.778 17.8496C261.032 17.8496 265.087 21.0888 265.087 26.4398H260.079C260.079 24.0731 258.299 22.3718 255.651 22.3718C253.208 22.3718 251.183 24.0332 251.183 26.2724C251.183 27.0613 251.433 28.7228 254.701 29.5913L258.093 30.5874C262.561 31.8345 265.996 34.1573 265.996 38.7233C265.996 43.9547 261.651 47.441 256.068 47.441C249.987 47.441 245.889 43.5404 245.889 38.6835V38.6875Z" fill="#000000"/>
</g>
<defs>
<clipPath id="clip0_20_1204">
<rect width="266" height="68" fill="white"/>
</clipPath>
</defs>
</svg>
