<?xml version="1.0" encoding="utf-8"?>
<!-- Generator: Adobe Illustrator 25.4.1, SVG Export Plug-In . SVG Version: 6.00 Build 0)  -->
<svg version="1.1" id="Calque_1" xmlns="http://www.w3.org/2000/svg" xmlns:xlink="http://www.w3.org/1999/xlink" x="0px" y="0px"
	 viewBox="0 0 115 35" style="enable-background:new 0 0 115 35;" xml:space="preserve">
<style type="text/css">
	.st0{fill:#238B85;}
	.st1{fill:#77695F;}
	.st2{fill:#F39325;}
	.st3{fill:#85BE4C;}
</style>
<g id="Groupe_1359" transform="translate(108.785 25.756)">
	<path id="Tracé_524" class="st0" d="M2.9,2.7"/>
</g>
<g id="Groupe_1360" transform="translate(-163.737 -130.262)">
	<g id="Groupe_1357_00000008828362550580845480000007019395486242850187_" transform="translate(201.974 139.427)">
		<path id="Tracé_513_00000075164630968504966040000002276028369459832495_" class="st1" d="M2.9,2.7h2.3v6.5l6.1-6.5h2.9L8.8,8.6
			l5.5,7.5h-2.7l-4.4-5.9l-2,2.1v3.8H2.9L2.9,2.7z"/>
		<path id="Tracé_514_00000090975501601372892320000001674407472644246422_" class="st1" d="M24.2,16.1h-2v-1.4
			c-0.8,1-2.1,1.6-3.4,1.5c-1,0-1.9-0.3-2.6-0.9c-0.7-0.6-1.1-1.5-1-2.4c-0.1-0.9,0.4-1.7,1.1-2.2c0.9-0.5,2-0.8,3-0.7h2.8V9.6
			c0-1.4-0.8-2-2.3-2c-1.1,0-2.1,0.4-2.9,1l-1-1.3c1.2-1,2.7-1.5,4.2-1.5c1.1,0,2.1,0.3,2.9,0.9c0.8,0.7,1.2,1.8,1.1,2.9L24.2,16.1z
			 M22,12.3v-0.9h-2.4c-1.5,0-2.3,0.5-2.3,1.5c0,0.5,0.2,0.9,0.6,1.1c0.5,0.3,1,0.4,1.6,0.4c0.6,0,1.3-0.2,1.8-0.6
			C21.8,13.5,22.1,12.9,22,12.3L22,12.3z"/>
		<path id="Tracé_515_00000169545226049487002400000016218500863949542054_" class="st1" d="M32.5,7.9c-0.9-0.1-1.8,0.3-2.4,1
			c-0.6,0.8-0.9,1.8-0.8,2.8v4.4h-2.2V5.9h2.1v2c0.3-0.6,0.8-1.2,1.4-1.6c0.6-0.4,1.2-0.6,1.9-0.6l0,2.2L32.5,7.9z"/>
		<path id="Tracé_516_00000002377474898898867740000010870088472793459119_" class="st1" d="M36.9,10.6v5.5h-2.1V5.9h2.1v1.9
			c1.1-1.9,3.5-2.6,5.5-1.5c0.3,0.1,0.5,0.3,0.7,0.5c0.8,0.8,1.1,1.9,1.1,3v6.2H42v-5.6c0-1.9-0.8-2.8-2.3-2.8
			c-0.7,0-1.4,0.3-1.9,0.7C37.2,9,36.9,9.8,36.9,10.6z"/>
		<path id="Tracé_517_00000108995177872571133040000015106332275291375001_" class="st1" d="M55.7,14.7c-2.1,2-5.5,2-7.7,0
			c-2-2.1-2-5.4,0-7.4c2.1-2,5.5-2,7.7,0C57.7,9.4,57.7,12.7,55.7,14.7z M49.5,13.4c1.3,1.2,3.3,1.2,4.6,0c1.2-1.4,1.2-3.4,0-4.8
			c-1.3-1.2-3.3-1.2-4.6,0C48.3,10,48.3,12,49.5,13.4z"/>
		<path id="Tracé_518_00000048475776781908011400000005682625187849651086_" class="st1" d="M62.1,7.6v5.2c0,0.4,0.1,0.8,0.4,1.2
			c0.3,0.3,0.7,0.5,1.1,0.4c0.5,0,1-0.3,1.3-0.7l0.9,1.5c-0.7,0.6-1.6,1-2.5,1c-0.9,0-1.7-0.3-2.3-0.9c-0.7-0.7-1-1.6-1-2.6V7.6
			h-1.3V5.9H60V2.7h2.1v3.2h2.7v1.7L62.1,7.6z"/>
		<path id="Tracé_519_00000101788432579683658880000000716263231766705048_" class="st1" d="M70.1,7.6v5.2c0,0.4,0.1,0.8,0.4,1.2
			c0.3,0.3,0.7,0.5,1.1,0.4c0.5,0,1-0.3,1.3-0.7l0.9,1.5c-0.7,0.6-1.6,1-2.5,1c-0.9,0-1.7-0.3-2.3-0.9c-0.7-0.7-1-1.6-1-2.6V7.6
			h-1.3V5.9H68V2.7h2.1v3.2h2.7v1.7L70.1,7.6z"/>
	</g>
	<g id="Groupe_1358_00000151520114115561399890000008069874836485107100_" transform="translate(163.737 130.262)">
		<path id="Tracé_520_00000167361414418159944580000017464965321814106784_" class="st2" d="M27.3,12.2c-0.7,0-1.3,0.1-2,0.3
			c0.5,0.9,0.9,1.8,1.1,2.8c1.5-0.5,3.1,0.3,3.6,1.8s-0.3,3.1-1.8,3.6c-0.8,0.3-1.6,0.2-2.4-0.2c-0.5,1.4-1.1,2.8-1.9,4.1
			c1,1.7,2.1,3.3,3.3,4.8c0,0,4.2-5.3,5.5-9.4c0.2-0.6,0.3-1.2,0.3-1.8c0-0.1,0-0.1,0-0.2C33.2,14.8,30.6,12.2,27.3,12.2z"/>
		<path id="Tracé_521_00000047757928762575580460000007308474147817159849_" class="st2" d="M8.8,20.9c-1.6,0-2.9-1.3-2.9-2.8
			c0-1.6,1.3-2.9,2.8-2.9c0.2,0,0.4,0,0.5,0.1c0.2-1,0.6-1.9,1.1-2.8c-3.1-0.9-6.3,0.9-7.2,3.9C3,16.9,2.9,17.5,2.9,18
			c0,0.1,0,0.1,0,0.2c0,0.6,0.1,1.2,0.3,1.8c1.2,4.1,5.5,9.4,5.5,9.4c1.1-1.4,2.1-2.9,3.1-4.5c-0.8-1.4-1.5-2.8-2-4.3
			C9.5,20.8,9.1,20.9,8.8,20.9z"/>
		<path id="Tracé_522_00000182495985776505018200000000058832624538387352_" class="st2" d="M25.3,16.5
			C25.3,16.5,25.3,16.5,25.3,16.5c-0.1-1.3-0.5-2.4-1.1-3.5l0,0c0,0,0-0.1-0.1-0.1c0-0.1-0.1-0.2-0.1-0.2c0,0-0.1-0.1-0.1-0.1
			c-0.1-0.1-0.1-0.2-0.2-0.2l-0.1-0.1c-0.1-0.1-0.2-0.2-0.3-0.3c0,0-0.1-0.1-0.1-0.1c-0.1-0.1-0.1-0.1-0.2-0.2c0,0-0.1-0.1-0.1-0.1
			c-0.1-0.1-0.2-0.2-0.3-0.3l0,0c-0.1-0.1-0.2-0.2-0.3-0.2L22.3,11c-0.1-0.1-0.2-0.1-0.3-0.2l-0.1-0.1c-0.1-0.1-0.2-0.1-0.4-0.2
			l-0.1,0c-0.1-0.1-0.2-0.1-0.3-0.2l-0.1-0.1c-0.1,0-0.2-0.1-0.3-0.1l-0.1,0c-0.1-0.1-0.3-0.1-0.4-0.2l-0.1,0
			c-0.1,0-0.2-0.1-0.3-0.1l-0.1,0c-0.1,0-0.2-0.1-0.4-0.1l-0.1,0c-0.1,0-0.3-0.1-0.4-0.1l-0.1,0c-0.1,0-0.2,0-0.3,0l-0.1,0
			c-0.1,0-0.3,0-0.5,0s-0.3,0-0.5,0c-2.4,0.2-4.5,1.4-5.8,3.4l0,0v0c-0.1,0.1-0.1,0.2-0.2,0.3l0,0c-0.1,0.1-0.1,0.2-0.2,0.3l0,0
			c-0.1,0.1-0.1,0.2-0.2,0.3l0,0c-0.1,0.1-0.1,0.2-0.1,0.3l0,0c0,0.1-0.1,0.2-0.1,0.3l0,0c0,0.1-0.1,0.2-0.1,0.4c0,0,0,0,0,0
			c0,0.1-0.1,0.2-0.1,0.4l0,0c0,0.1-0.1,0.3-0.1,0.4l0,0c0,0,0,0,0,0c0,0,0,0.1,0,0.1c0,0.1,0,0.2,0,0.3c0,0.1,0,0.1,0,0.2
			c0,0.1,0,0.2,0,0.2c0,0,0,0.1,0,0.1c0,0.1,0,0.3,0,0.4c0,0.1,0,0.2,0,0.3c0,0.8,0.2,1.5,0.4,2.3c0.1,0.3,0.2,0.5,0.3,0.8
			c0,0,0,0,0,0c0,0.1,0.1,0.3,0.2,0.4l0,0.1c0.1,0.1,0.1,0.3,0.2,0.4l0,0.1c0.1,0.1,0.1,0.3,0.2,0.4l0.1,0.1
			c0.1,0.1,0.1,0.2,0.2,0.4l0.1,0.1c0.1,0.1,0.1,0.2,0.2,0.4l0.1,0.1c0.1,0.1,0.1,0.2,0.2,0.3l0.1,0.1c0.1,0.1,0.1,0.2,0.2,0.4l0,0
			c1.5,2.8,3.3,5.4,5.2,7.9l0,0l0,0l0,0l0,0c2.1-2.6,3.9-5.4,5.5-8.4l0,0c0.1-0.1,0.2-0.3,0.2-0.4l0-0.1c0.1-0.1,0.1-0.3,0.2-0.4
			l0-0.1c0.1-0.1,0.1-0.2,0.2-0.4l0.1-0.1c0.1-0.1,0.1-0.2,0.1-0.3l0.1-0.2c0-0.1,0.1-0.2,0.1-0.3c0-0.1,0.1-0.1,0.1-0.2
			s0.1-0.2,0.1-0.3s0.1-0.2,0.1-0.3c0-0.1,0-0.1,0.1-0.2c0.1-0.2,0.1-0.3,0.2-0.5c0,0,0,0,0,0s0,0,0,0c0.1-0.2,0.1-0.3,0.2-0.5l0,0
			c0-0.2,0.1-0.4,0.1-0.5c0,0,0,0,0-0.1c0-0.2,0.1-0.3,0.1-0.5c0-0.2,0-0.4,0-0.6c0-0.1,0-0.2,0-0.3C25.3,16.8,25.3,16.7,25.3,16.5z
			 M17.8,20.7c-0.4,0-0.7-0.1-1-0.2c-0.7-0.2-1.4-0.7-1.9-1.3l0,0c0-0.1-0.1-0.1-0.1-0.2c0,0-0.1-0.1-0.1-0.1s0-0.1-0.1-0.1
			c0-0.1-0.1-0.1-0.1-0.2l0,0c-0.1-0.1-0.1-0.2-0.1-0.3c0,0,0,0,0-0.1c0-0.1,0-0.1-0.1-0.2c0-0.1,0-0.1,0-0.2c0,0,0-0.1,0-0.1
			c0-0.1,0-0.2,0-0.3c0,0,0,0,0-0.1c0-0.1,0-0.2,0-0.3s0-0.2,0-0.3c0,0,0-0.1,0-0.1c0-0.1,0-0.1,0-0.2s0-0.2,0-0.2l0,0
			c0.5-2,2.5-3.2,4.4-2.7s3.2,2.5,2.7,4.4C21,19.5,19.5,20.7,17.8,20.7L17.8,20.7z"/>
		<path id="Tracé_523_00000112594090397463965060000018255001304611876484_" class="st3" d="M23.1,3.5l-1.6-0.7
			c-0.4-0.2-0.9,0-1,0.4c0,0,0,0,0,0l-1,2.2v-2c0-0.4-0.4-0.8-0.8-0.8H17c-0.4,0-0.8,0.4-0.8,0.8c0,0,0,0,0,0v2l-1-2.2
			c-0.2-0.4-0.7-0.6-1.1-0.4l-1.6,0.7c-0.4,0.2-0.6,0.6-0.4,1.1l1.9,4.3c0.7-0.3,1.4-0.6,2.2-0.7C16.6,8.1,16.9,8,17.3,8l0,0
			c0.2,0,0.4,0,0.5,0s0.4,0,0.6,0c0.4,0,0.7,0.1,1.1,0.1c0.7,0.2,1.5,0.4,2.1,0.7l1.8-4.3C23.7,4.2,23.5,3.7,23.1,3.5
			C23.1,3.5,23.1,3.5,23.1,3.5z"/>
	</g>
	<g id="Groupe_1359_00000057826816316218414150000007765837832967559315_" transform="translate(272.522 156.018)">
		<path id="Tracé_524_00000021813635790344373130000008273639686724455082_" class="st1" d="M2.9,2.7"/>
	</g>
</g>
</svg>
