<svg xmlns="http://www.w3.org/2000/svg" id="logo" y="0px" viewBox="0 0 106 119" preserveAspectRatio="xMidYMid meet" xml:space="preserve">
	<style>
		/* restored brand colors from vitaminherb.fr */
		.st0{fill:#0f4534} /* rgb(15,69,52) */
		.st1{fill:#ffffff}
		/* 'herb' text uses the brand lime color to match page text */
		.st2{fill:#a5c71c}
	</style>
	<path class="st0" d="M0,0v66c0,29.3,23.7,53,53,53s53-23.7,53-53V0H0z"/>
	<g>
		<g>
			<path class="st1" d="M25.8,24.9l2.2,6.6l2.2-6.6h2.3l-3.2,8.6h-2.6l-3.2-8.6H25.8z"/>
		</g>
		<g>
			<path class="st1" d="M33.3,22.5c0-0.7,0.6-1.3,1.3-1.3c0.8,0,1.3,0.6,1.3,1.3c0,0.7-0.6,1.3-1.3,1.3 C33.9,23.8,33.3,23.3,33.3,22.5z M33.6,24.9h2.2v8.6h-2.2V24.9z"/>
		</g>
		<g>
			<path class="st1" d="M38.1,26.6h-1v-1.8h1v-2.1h2.2v2.1h1.9v1.8h-1.9v4.2c0,0.6,0.2,0.8,0.9,0.8h1v1.8h-1.4 c-1.7,0-2.8-0.7-2.8-2.7V26.6z"/>
		</g>
		<g>
			<path class="st1" d="M47,24.7c1.4,0,2.3,0.7,2.8,1.4v-1.2h2.2v8.6h-2.2v-1.3c-0.5,0.7-1.5,1.4-2.9,1.4c-2.2,0-3.9-1.8-3.9-4.5 C43.1,26.4,44.8,24.7,47,24.7z M47.6,26.6c-1.2,0-2.3,0.9-2.3,2.5c0,1.6,1.1,2.6,2.3,2.6c1.2,0,2.3-0.9,2.3-2.5 C49.9,27.5,48.8,26.6,47.6,26.6z"/>
		</g>
		<g>
			<path class="st1" d="M66.1,28.7c0-1.4-0.8-2.1-1.9-2.1c-1.2,0-1.9,0.7-1.9,2.1v4.8h-2.2v-4.8c0-1.4-0.8-2.1-1.9-2.1 c-1.2,0-1.9,0.7-1.9,2.1v4.8H54v-8.6h2.2v1c0.5-0.7,1.5-1.2,2.5-1.2c1.3,0,2.4,0.6,3,1.7c0.6-1,1.7-1.7,3-1.7 c2.1,0,3.5,1.3,3.5,3.7v5.1h-2.2V28.7z"/>
		</g>
		<g>
			<path class="st1" d="M70,22.5c0-0.7,0.6-1.3,1.3-1.3c0.8,0,1.3,0.6,1.3,1.3c0,0.7-0.6,1.3-1.3,1.3C70.5,23.8,70,23.3,70,22.5z M70.2,24.9h2.2v8.6h-2.2V24.9z"/>
		</g>
		<g>
			<path class="st1" d="M80.4,28.7c0-1.4-0.8-2.1-1.9-2.1c-1.2,0-1.9,0.7-1.9,2.1v4.8h-2.2v-8.6h2.2v1.1c0.6-0.7,1.5-1.2,2.6-1.2 c2,0,3.4,1.3,3.4,3.7v5.1h-2.2V28.7z"/>
		</g>
		<g>
			<path class="st2" d="M23.5,36.4h2.2v4c0.6-0.7,1.5-1.2,2.7-1.2c2,0,3.4,1.3,3.4,3.7v5.1h-2.2v-4.8c0-1.4-0.8-2.2-1.9-2.2 c-1.2,0-2,0.8-2,2.2v4.8h-2.2V36.4z"/>
		</g>
		<g>
			<path class="st2" d="M37.4,48.2c-2.5,0-4.4-1.8-4.4-4.5c0-2.8,1.8-4.5,4.4-4.5c2.5,0,4.3,1.7,4.3,4.3c0,0.3,0,0.6-0.1,0.8h-6.4 c0.1,1.3,1,2,2.1,2c0.9,0,1.5-0.5,1.7-1.1h2.4C41,46.9,39.6,48.2,37.4,48.2z M35.3,42.9h4.1c0-1.1-0.9-1.9-2.1-1.9 C36.3,41,35.4,41.7,35.3,42.9z"/>
		</g>
		<g>
			<path class="st2" d="M45.3,48.1h-2.2v-8.7h2.2v1.4c0.5-0.9,2-1.5,3.3-1.5v2.3h-1.2c-1.3,0-2.1,0.5-2.1,2.2V48.1z"/>
		</g>
		<g>
			<path class="st2" d="M55,39.2c2.2,0,4,1.7,4,4.5c0,2.7-1.7,4.5-4,4.5c-1.4,0-2.3-0.6-2.9-1.4v1.2h-2.2V36.4h2.2v4.2 C52.6,39.8,53.6,39.2,55,39.2z M54.4,41.2c-1.2,0-2.3,0.9-2.3,2.6c0,1.7,1.1,2.6,2.3,2.6c1.2,0,2.3-0.9,2.3-2.6 C56.7,42,55.6,41.2,54.4,41.2z"/>
		</g>
		<path class="st1" d="M81.7,54.5h-6.8l7.7-7.7c0.5-0.5,0.5-1.3,0-1.8s-1.3-0.5-1.8,0l-9.5,9.5h-47c-0.7,0-1.3,0.6-1.3,1.3v11.4 c0,16.5,13.5,30,30,30c0,0,0,0,0.1,0c0,0,0,0,0,0c0,0,0,0,0,0C69.6,97.2,83,83.8,83,67.3V55.8C83,55.1,82.4,54.5,81.7,54.5z M80.4,67.3c0,14.7-11.6,26.6-26.1,27.3v-9.3c9.5-0.7,16.9-8.6,17-18.2c0,0,0-0.1,0-0.1c0-0.7-0.6-1.3-1.3-1.3c0,0,0,0,0,0s0,0,0,0 c0,0,0,0,0,0c0,0,0,0,0,0c-7.9,0-14.6,5.1-17.2,12.1c-2.3-4.7-7.1-7.9-12.7-8c0,0,0,0,0,0c0,0,0,0,0,0c0,0,0,0-0.1,0 c-0.7,0-1.2,0.6-1.2,1.3c0,0,0,0,0,0s0,0,0,0c0,7.3,5.7,13.4,12.9,14v9.4C37.2,94,25.6,82,25.6,67.3V57.1h46.1c0,0,0.1,0,0.1,0 s0.1,0,0.1,0h8.5V67.3z M54.4,82.7c0.7-7.6,6.7-13.6,14.3-14.3C68.1,76,62,82,54.4,82.7z M51.7,82.7c-5.3-0.6-9.4-4.8-10.1-10.1 C46.9,73.3,51,77.4,51.7,82.7z"/>
	</g>
</svg>